<?xml version="1.0" encoding="UTF-8" standalone="no"?>
<!DOCTYPE svg PUBLIC "-//W3C//DTD SVG 1.1//EN" "http://www.w3.org/Graphics/SVG/1.1/DTD/svg11.dtd">
<svg width="100%" height="100%" viewBox="0 0 1560 800" version="1.1" xmlns="http://www.w3.org/2000/svg" xmlns:xlink="http://www.w3.org/1999/xlink" xml:space="preserve" xmlns:serif="http://www.serif.com/" style="fill-rule:evenodd;clip-rule:evenodd;stroke-linejoin:round;stroke-miterlimit:2;">
    <g id="snake-body">
        <g id="snake_body_base" transform="matrix(1,0,0,1,-3,-3.04251)">
            <path d="M362.273,570.841C363.044,572.445 394.789,607.529 368.474,662.66C338.751,724.933 249.576,750.513 191.081,659.956C52.719,445.753 234.75,39.212 663.971,103.294C904.645,139.226 1046.89,311.203 1104.44,367.865C1137.92,400.827 1191.31,422.791 1199.59,421.555C1202.35,418.601 1214.29,417.702 1209.34,348.257C1202,245.212 1178.86,221.316 1179.63,214.281C1196.69,58.183 1406.72,12.137 1500.57,141.687C1541.08,197.606 1551.89,255.843 1547.17,262.701C1470.86,373.47 1438.1,446.717 1410.36,488.093C1393.32,513.502 1324.9,621.61 1207.75,623.767C1170.29,624.456 1076.69,611.426 973.642,511.843C861.734,403.696 781.514,292.361 567.047,289.841C456.894,288.546 357.369,371.25 342.061,476.745C335.049,525.068 342.686,543.859 362.273,570.841Z" style="fill:rgb(240,204,0);stroke:black;stroke-width:5px;"/>
        </g>
        <g id="snake_body_light" transform="matrix(1,0,0,1,-3,-3.04251)">
            <path d="M1244.8,224.652C1247.22,217.185 1248.51,209.384 1250.92,201.917C1252.1,198.263 1253.85,194.808 1255.56,191.374C1256.38,189.75 1260.63,181.248 1267.67,172.182C1268.77,170.762 1274.56,163.308 1283.08,155.846C1291.54,148.438 1299.7,143.665 1301.25,142.761C1311.02,137.042 1319.92,133.917 1321.62,133.322C1332.44,129.522 1341.85,128.182 1343.65,127.926C1355.24,126.275 1364.94,126.856 1366.79,126.967C1366.8,126.968 1378.6,128.274 1378.61,128.276C1382.48,129.11 1386.4,129.75 1390.23,130.778C1392.02,131.259 1401.41,133.782 1411.88,139.019C1413.51,139.831 1422.01,144.084 1431.08,151.118C1432.49,152.219 1439.95,158.003 1447.41,166.524C1448.59,167.872 1454.82,174.984 1460.5,184.69C1466.21,194.468 1469.34,203.371 1469.93,205.066C1473.73,215.894 1475.07,225.306 1475.33,227.103C1476.98,238.697 1476.4,248.403 1476.29,250.253C1475.81,258.158 1475.65,258.143 1474.34,265.951C1473.89,268.59 1473.36,271.628 1473.36,271.638C1473.36,271.64 1471.66,276.172 1469.61,281.375C1449.23,333.263 1429.07,367.991 1425.86,374.095C1387.36,447.314 1351.12,483.081 1332.25,499.531C1329.6,501.835 1308.85,525.959 1275.27,542.976C1230.56,565.636 1191.77,561.649 1173.9,558.939C1119.15,550.636 1074.05,517.054 1042.49,487.586C1037.11,482.567 1035.77,482.292 1007.07,454.141C977.474,425.111 934.267,381.647 890.652,347.953C844.517,312.312 808.127,293.176 769.435,278.008C769.309,277.958 758.03,273.346 738.637,267.296C718.805,261.111 705.202,258.047 702.841,257.343C687.667,252.818 663.972,246.414 635.871,241.733C635.076,241.6 616.204,238.997 593.837,238.329C559.826,237.311 533.915,241.349 525.858,242.669C525.798,242.679 518.716,243.914 509.741,246.079C465.257,256.813 440.179,274.192 433.795,278.029C403.01,296.531 384.967,317.909 374.719,331.371C360.148,350.511 349.211,371.826 341.88,393.941C341.274,395.769 340.296,397.569 337.833,404.075C324.786,438.535 323.708,467.047 323.681,480.805C323.608,518.538 334.816,540.264 337.51,545.512L337.463,545.445C339.755,552.464 344.062,558.715 346.354,565.734C347.473,569.16 347.525,572.871 347.595,576.474C347.665,580.054 347.385,583.657 346.773,587.185C346.162,590.713 345.215,594.199 343.945,597.547C342.666,600.915 341.068,604.182 339.164,607.241C337.23,610.345 334.996,613.286 332.486,615.947C332.475,615.959 323.967,623.347 323.96,623.351C320.686,625.194 317.579,627.368 314.139,628.876C310.791,630.344 307.27,631.458 303.697,632.234C300.177,632.998 296.564,633.404 292.962,633.474C289.383,633.544 285.781,633.263 282.253,632.652C278.725,632.041 275.238,631.093 271.889,629.823C268.519,628.545 265.251,626.947 262.191,625.043C259.084,623.11 256.14,620.877 253.477,618.367C249.684,614.795 243.246,606.252 242.417,605.151C206.274,557.191 197.398,501.461 194.982,485.016C192.92,470.977 192.275,456.77 192.163,454.305C189.966,405.89 198.605,367.575 202.845,350.649C202.846,350.645 204.633,344.798 207.243,337.427C230.56,271.59 266.123,231.074 278.125,217.858C300.015,193.756 326.645,171.193 358.532,152.178C358.885,151.968 373.122,143.553 393.541,134.712C445.507,112.212 490.833,106.71 509.281,104.361C574.055,96.115 628.197,103.18 653.746,107.048C657.647,107.639 692.084,111.147 739.466,123.107C741.412,123.598 757.81,128.477 777.168,135.427C779.791,136.368 794.351,141.482 818.662,151.762C884.839,179.746 935.477,213.386 994.615,264.781C1052.35,314.953 1098.82,367.499 1125.54,391.876C1125.59,391.918 1135.43,400.282 1147.38,408.116C1174.04,425.593 1188.68,426.027 1192.48,426.113L1192.48,426.104C1196.88,426.01 1204.88,425.234 1216.79,412.397C1219.79,409.168 1222.15,406.098 1223.42,404.401C1223.57,404.207 1223.6,404.219 1224.49,402.109C1230.57,387.819 1240.22,359.725 1244.91,312.152C1244.92,312.079 1245.94,297.534 1245.84,277.626C1245.69,250.845 1243.64,231.542 1243.67,231.335C1243.75,230.795 1243.78,230.798 1244.8,224.652Z" style="fill:rgb(254,227,45);"/>
        </g>
    </g>
    <g id="Pygame-ce">
        <g id="Pygame_shadow" transform="matrix(1,0,0,1,-3,-3.04251)">
            <path d="M172.358,365.396C194.988,303.834 232.047,248.148 285.506,201.766C285.506,201.766 285.706,206.452 287.015,215.748C288.74,227.988 279.732,251.654 279.971,252.37C280.806,254.517 281.531,257.794 291.557,260.269C299.647,262.266 296.192,258.581 295.423,248.977C294.765,240.758 295.945,237.51 298.627,233.644C303.136,227.145 307.776,226.123 317.709,217.11C327,208.679 328.931,202.623 349.185,192.361C354.685,189.575 370.052,183.78 378.073,187.321C387.807,191.617 390.654,195.647 395.498,200.941C400.668,206.592 408.054,222.217 409.095,221.225C417.448,213.264 423.483,201.804 434.331,197.736C444.709,193.919 478.468,195.35 502.684,200.599C507.428,201.627 510.084,200.896 510.084,200.896C510.084,200.896 511.949,196.132 514.493,194.157C520.891,189.19 541.572,189.982 550.518,192.01C556.722,193.561 562.997,200.917 565.072,207.756C568.193,218.047 573.303,244.02 573.303,244.02C573.303,244.02 585.469,228.731 592.031,224.337C617.981,206.963 648.641,198.428 679.135,193.468C694.876,190.907 722.066,189.446 740.188,215.748C754.487,236.502 756.354,246.464 758.282,248.393C758.844,248.955 769.685,238.673 774.663,231.853C780.526,223.818 793.451,212.905 803.053,208.353C811.931,204.144 824.883,203.7 832.279,204.535C838.092,205.158 844.972,207.638 850.003,210.561C856.541,214.36 863.08,222.612 863.941,224.337C864.674,225.803 867.654,214.409 872.721,207.756C877.658,201.273 886.997,198.73 893.615,197.157C897.372,196.265 898.279,196.625 902.375,196.067C997.086,255.91 1067.82,335.452 1102.6,369.702C1121.87,388.672 1147.73,404 1167.8,413.358C1167.8,413.358 1161.57,426.799 1159.73,428.772C1140.89,448.921 1127.63,454.101 1099.01,457.586C1082.07,459.648 1062.39,455.927 1048.58,452.74C1036.66,449.989 1023.24,438.938 1014.17,430.724C997.877,415.965 989.609,389.684 989.223,386.867C982.719,418.053 944.2,460.741 909.442,434.131C893.695,422.075 889.254,396.068 887.737,384.53C886.818,377.545 890.039,359.098 887.379,357.69C884.736,356.248 882.787,359.918 881.695,361.415C877.765,366.802 876.968,369.163 871.275,372.959C868.482,374.774 864.514,378.933 852.282,391.165C782.523,331.754 701.341,288.657 567.047,287.078C468.722,285.923 376.308,353.441 347.258,442.609C347.258,442.609 338.464,453.382 319.923,457.072C290.043,463.018 261.319,461.67 232.394,452.74C199.94,442.721 168.924,406.392 183.222,371.123C185.547,365.386 193.751,355.951 198.53,350.739C194.616,354.89 182.903,361.212 172.358,365.396Z" style="fill-opacity:0.15;"/>
        </g>
        <g id="Pygame" transform="matrix(1.19289,0,0,1.19289,-10.1906,36.483)">
            <g id="shadow" transform="matrix(0.744353,0,0,0.744353,-1.87816,0.159385)">
                <path d="M446.083,428.557C430.438,439.977 404.513,447.031 385.555,450.803C351.903,457.5 316.842,453.812 284.266,443.755C247.716,432.472 212.785,391.558 228.887,351.837C231.507,345.376 240.746,334.75 246.128,328.88C248.565,326.295 250.1,324.653 250.1,324.653C250.1,324.653 248.483,326.311 246.128,328.88C239.045,336.391 224.342,351.853 217.49,358.1C200.114,373.944 175.999,378.478 153.392,380.25L154.064,396.64C154.263,401.47 154.678,406.366 153.922,411.14C152.136,422.427 138.526,425.078 131.625,431.528C128.573,434.38 127.439,438.839 124.611,441.915C113.624,453.865 96.498,456.522 81.115,456.424C66.874,456.289 59.754,455.618 51.962,453.603C46.401,452.136 40.315,450.122 36.147,445.824C31.991,441.538 29.818,435.015 28.452,429.42C24.337,412.566 21.857,399.252 19.988,381.997C19.182,374.608 17.839,363.726 17.167,357.815C15.017,341.29 13.405,286.612 14.211,259.743C14.639,244.553 14.578,230.507 18.976,215.615C22.267,204.471 33.585,192.606 44.445,184.989C54.989,170.03 76.974,156.546 93.867,151.741C107.756,147.79 126.516,146.3 140.745,145.801C163.456,145.004 184.623,147.945 208.52,153.207C227.058,157.289 239.278,165.107 255.091,175.509C271.818,157.713 299.746,139.337 326.196,151.9C332.107,154.721 344.306,166.382 345.781,176.852C347.723,190.637 337.579,217.29 337.848,218.096C338.788,220.514 339.605,224.204 350.897,226.992C360.008,229.241 356.116,225.091 355.25,214.275C354.509,205.018 355.838,201.36 358.859,197.006C363.937,189.687 369.162,188.536 380.349,178.386C390.813,168.891 392.987,162.07 415.798,150.513C421.992,147.375 439.298,140.849 448.332,144.837C459.294,149.676 462.5,154.214 467.956,160.176C473.779,166.54 482.097,184.137 483.269,183.019C492.676,174.054 499.472,161.148 511.69,156.566C523.378,152.267 561.397,153.879 588.669,159.791C594.013,160.949 597.004,160.125 597.004,160.125C597.004,160.125 599.104,154.76 601.97,152.536C609.175,146.942 632.466,147.834 642.542,150.118C649.528,151.864 656.595,160.148 658.932,167.851C662.447,179.441 668.202,208.692 668.202,208.692C668.202,208.692 681.904,191.473 689.294,186.525C718.519,166.958 753.049,157.345 787.391,151.759C805.119,148.876 835.741,147.23 856.15,176.852C872.254,200.226 874.356,211.445 876.528,213.617C877.161,214.25 889.37,202.67 894.976,194.989C901.579,185.94 916.135,173.65 926.95,168.523C936.947,163.783 951.535,163.283 959.864,164.224C966.411,164.925 974.159,167.718 979.824,171.01C987.188,175.289 994.552,184.583 995.522,186.525C996.347,188.176 999.704,175.344 1005.41,167.851C1010.97,160.55 1023.74,154.307 1031.19,152.536C1066.29,144.197 1100.45,151.412 1123.02,183.019C1127.25,188.93 1138.89,208.692 1138.89,208.692C1138.89,208.692 1165.01,183.286 1175.53,174.05C1182.12,168.269 1200.67,158.118 1209.12,155.481C1268.43,136.969 1328.89,170.649 1358.63,222.959C1370.14,243.212 1371.18,267.401 1373.26,289.896C1373.97,297.61 1374.55,299.828 1368.76,305.69C1367.38,307.088 1359.91,309.888 1360.87,310.456C1362.22,311.256 1370.29,313.789 1372.51,316.185C1377.62,321.709 1375.37,337.912 1373.56,344.025C1366.05,369.409 1355.27,388.28 1328.64,416.762C1307.42,439.455 1292.49,445.288 1260.26,449.212C1241.18,451.534 1219.01,447.344 1203.47,443.755C1190.04,440.656 1174.92,428.211 1164.71,418.961C1146.36,402.339 1137.05,372.74 1136.62,369.568C1129.29,404.691 1085.91,452.766 1046.77,422.797C1029.03,409.22 1024.03,379.93 1022.32,366.936C1021.29,359.069 1024.91,338.294 1021.92,336.708C1018.94,335.085 1016.75,339.218 1015.52,340.904C1011.09,346.971 1010.19,349.63 1003.78,353.904C1000.12,356.287 1000.9,361.504 1000.69,365.055C1000.47,368.947 996.583,401.33 985.553,416.749C974.076,432.791 936.316,443.153 923.877,438.818C889.7,426.905 879.115,368.234 879.115,368.234C879.115,368.234 874.338,434.496 798.198,445.824C764.23,450.878 712.126,438.156 694.685,428.557C665.478,412.483 663.363,401.821 662.147,393.564C654.259,424.764 640.579,432.86 618.601,442.074C605.841,447.424 568.19,452.324 549.306,452.324C533.997,452.324 519.758,448.365 505.299,439.184C487.91,428.143 478.602,413.658 479.421,382.28C473.465,406.749 461.727,417.136 446.083,428.557ZM565.562,352.038C565.013,351.022 564.605,349.934 564.21,348.849C563.195,346.059 567.178,345.026 569.113,344.883C570.21,344.802 571.318,344.903 572.414,344.8C573.587,344.69 577.111,343.85 577.727,343.941C578.689,344.083 578.957,345.295 578.965,346.065C578.979,347.483 578.663,349.497 578.033,350.788C576.903,353.106 574.15,353.645 571.876,354.053C567.846,354.59 566.771,354.322 565.562,352.038ZM1245.62,341.29C1244.21,340.763 1239.45,338.913 1240.01,337.967C1240.65,336.892 1246.99,337.11 1248.94,337.059C1252.79,336.96 1260.71,336.771 1261.74,337.797C1262.32,338.381 1260.78,340.517 1260.26,341.156C1257.71,344.112 1253.41,344.246 1245.62,341.29ZM157.557,266.729C157.557,259.474 155.408,256.787 146.541,253.294C144.916,252.633 143.25,252.058 141.549,251.628C140.272,251.305 138.957,251.095 137.64,251.044C136.883,251.015 136.099,251.114 135.394,251.392C133.347,252.199 134.549,255.025 134.991,256.279C136.528,260.637 138.949,264.79 142.51,267.804C146.809,271.565 151.78,273.715 155.005,273.446C157.288,273.177 157.691,272.237 157.557,266.729ZM562.408,255.089C562.408,253.842 561.877,251.76 561.42,250.613C559.462,245.696 559.137,245.19 556.195,240.796C555.429,239.651 553.823,238.625 552.452,239.435C550.829,240.394 550.49,242.537 550.894,244.225C551.86,248.253 553.605,252.388 557.048,254.927C557.574,255.314 559.987,256.202 560.632,256.27C561.339,256.345 562.408,255.957 562.408,255.089Z" style="fill:rgb(0,1,0);"/>
            </g>
            <g id="e">
                <path id="e_mid" d="M915.4,310C890.7,304.2 871.7,292.5 859.5,275.5C854.2,268 848.143,255.637 847.1,252.2C843.25,239.518 846.7,190.7 848,184.3C854.2,154.4 873.2,132.4 901.4,122.7C909.7,119.9 911.6,119.6 922.5,119.6C946.9,119.7 965,127.7 984.3,147.2C991.9,154.8 994.8,158.6 997.2,163.8C998.9,167.5 1001.3,172.1 1002.5,174C1005.8,179.4 1009,194 1009.7,207C1010.2,217 1010.1,218.8 1008.6,220.2C1004.6,224.3 989.2,226 957,226C935.5,226.1 902.8,224.6 901.1,223.6C900.7,223.3 899.4,223.7 898.4,224.5C896.8,225.6 896.5,227 896.6,232.7C896.8,240.8 898.2,243.9 904.2,249.6C910,255.1 914,257.4 923.4,260.4C933.6,263.8 938.6,263.8 943.5,260.4C948.3,257.2 950.1,254.9 954,247.9C957.6,241.1 959.3,240.3 971.5,239.6C976.5,239.2 984.7,238.5 989.8,237.9C1001.6,236.4 1009.8,237.1 1011.6,239.5C1015.6,245 1007.61,267.208 999.6,278C990.85,289.783 973.133,304.867 959.1,310.2C945.483,315.375 926.7,312.6 915.4,310ZM953.301,188.795C960.3,185.245 960.401,182.995 954.301,177.295C951.701,174.995 946.501,171.395 942.701,169.395C933.201,164.395 926.301,164.295 918.001,168.995C908.701,174.195 903.101,181.095 905.501,184.395C907.401,186.995 913.201,190.095 917.601,190.895C920.201,191.395 928.201,191.695 935.301,191.495C946.801,191.295 948.901,190.995 953.301,188.795Z" style="fill:rgb(106,240,42);fill-rule:nonzero;"/>
                <path id="e_bottom" d="M915.4,310C890.7,304.2 871.7,292.5 859.5,275.5C854.2,268 848.643,256.913 847.099,252.006C846.316,249.515 845.963,246.467 845.849,244.662C845.849,244.662 850.035,243.131 852.171,241.133C854.492,238.961 857.52,234.318 859.421,233.824C863.646,232.725 867.463,245.149 868.323,245.671C869.184,246.193 878.128,246.496 879.014,245.471C883.406,240.386 890.428,236.145 893.431,240.239C895.241,242.707 897.537,247.018 900.157,248.101C901.106,248.493 902.327,248.032 902.327,248.032C902.327,248.032 904.74,250.108 904.913,250.268C910.341,255.292 914.39,257.524 923.4,260.4C933.6,263.8 938.6,263.8 943.5,260.4C947.145,257.97 949.06,256.059 951.478,252.215C952.245,250.997 957.62,253.098 965.253,249.516C976.375,244.298 977.437,240.052 981.251,242.813C985.726,246.054 987.611,245.008 993.844,245.324C1004.38,245.859 1005.31,237.213 1008.93,238.352C1010.13,238.732 1011.15,238.9 1011.6,239.5C1015.6,245 1007.61,267.208 999.6,278C990.85,289.783 973.133,304.867 959.1,310.2C945.483,315.375 926.7,312.6 915.4,310Z" style="fill:rgb(193,253,32);fill-rule:nonzero;"/>
                <path id="e_top" d="M1006.3,184.38C1006.56,185.396 1000.28,179.352 993.999,180.776C981.283,183.657 983.188,189.019 978.097,189.873C971.966,190.902 967.482,179.035 966.858,181.812C965.881,186.162 963.835,190.772 957.481,186.227C957.127,185.974 959.509,185.207 958.376,182.235C956.295,176.779 938.186,164.162 927.852,165.608C916.427,167.206 903.439,178.535 905.164,183.785C905.926,186.105 905.637,190.321 900.038,190.094C890.009,189.825 889.385,179.676 882.167,180.827C875.385,181.909 871.592,192.172 867.226,195.781C864.545,197.998 862.159,187.096 854.763,187.009C851.701,186.973 850.448,189.405 849.092,190.668C848.337,191.371 847.4,191.225 847.423,190.806C847.599,187.628 847.793,185.319 848,184.3C854.2,154.4 873.2,132.4 901.4,122.7C909.7,119.9 911.6,119.6 922.5,119.6C946.9,119.7 965,127.7 984.3,147.2C991.9,154.8 994.8,158.6 997.2,163.8C998.9,167.5 1001.3,172.1 1002.5,174C1003.84,176.188 1005.16,179.888 1006.3,184.38Z" style="fill:rgb(8,223,28);fill-rule:nonzero;"/>
            </g>
            <g id="m">
                <path id="m_mid" d="M846,189.4C847.264,199.322 847.132,207.189 846.485,223.235C845.823,239.664 843.607,254.573 843,256.9C839.9,269.1 836.1,276.7 830.4,282.3C822.8,289.6 816.5,291.9 807.4,290.5C803.4,289.9 801.9,288.9 796.1,283.2C787.9,275 784.4,268.1 783.6,258.5C782.9,251.3 783.7,244.8 788.4,220.7C789.7,213.6 791.2,203.5 791.5,198.1C792.2,188.9 792.1,188.1 789.6,183.2C785.1,174.3 780.1,174.3 778.5,183.3C776.4,195 768,227 765.9,231.5C761.1,241.7 753.7,244.1 746.1,238.1C742.3,235.1 734.2,223.5 722.7,205C720.2,200.8 716.4,195.5 714.4,193.1C711.1,189.3 710.6,189 709.2,190.4C707.2,192.4 705.325,202.128 708,210.6C709.2,214.4 720.1,235 722.5,238C723.8,239.6 728.2,248.1 732.1,256.5C736.5,265.9 735.5,282.2 729.9,293.3C726.9,299.2 720.3,305.8 715.1,308.1C709.1,310.8 696.3,311.2 690.7,308.7C685.6,306.5 676.2,296.8 672.4,290C664.1,275.2 657.7,253 655.9,233C652.6,197.5 661.7,158.7 676.7,143.6C685,135.3 697,130 707.8,130C713.8,130 715.3,130.4 720.9,133.8C724.4,135.8 729.1,139.7 731.4,142.4C737.5,149.7 738.575,152 741,152C743.425,152 744.906,146.517 747.035,140.264C748.982,134.546 748.673,131.427 753,127.1C761.5,118.6 788.3,115.5 803,121.2C817.6,126.9 831.9,143.9 838.9,163.7C841.5,171 844.877,180.584 846,189.4Z" style="fill:rgb(106,240,42);fill-rule:nonzero;"/>
                <path id="m_bottom2" d="M784.747,240.624C784.97,239.227 789.015,246.383 795.137,249.278C796.446,249.897 803.677,239.162 813.561,239.128C817.19,239.116 819.823,239.677 826.503,249.191C827.796,251.032 832.249,251.375 838.213,249.248C843.048,247.524 844.847,244.272 844.794,244.734C844.057,251.133 843.314,255.697 843,256.9C839.9,269.1 836.1,276.7 830.4,282.3C822.8,289.6 816.5,291.9 807.4,290.5C803.4,289.9 801.9,288.9 796.1,283.2C787.9,275 784.4,268.1 783.6,258.5C783.15,253.872 783.32,249.533 784.747,240.624Z" style="fill:rgb(193,253,32);fill-rule:nonzero;"/>
                <path id="m_bottom1" d="M672.4,290C666.334,279.184 658.271,249.256 658.271,249.256C662.429,251.073 664.693,251.869 667.029,250.052C669.744,247.94 671.843,239.75 675.661,241.393C678.732,242.716 682.602,250.331 685.225,251.574C689.194,253.455 692.039,244.353 695.927,244.091C704.321,243.523 709.548,245.795 712.551,240.915C714.756,237.332 719.169,239.268 719.746,239.748C722.402,241.958 722.921,249.45 726.902,250.295C728.356,250.603 728.653,249.306 728.653,249.306C728.653,249.306 730.964,254.053 732.1,256.5C736.5,265.9 735.5,282.2 729.9,293.3C726.9,299.2 720.3,305.8 715.1,308.1C709.1,310.8 696.3,311.2 690.7,308.7C685.6,306.5 676.2,296.8 672.4,290Z" style="fill:rgb(193,253,32);fill-rule:nonzero;"/>
                <path id="m_top" d="M844.298,180.688C844.359,180.966 841.662,182.5 840.768,183.543C837.468,187.395 839.789,194.766 836.494,196.652C833.606,198.305 831.293,196.178 830.836,195.771C826.592,191.993 822.374,181.476 813.086,182.034C805.358,182.498 800.722,191.352 795.553,190.302C792.373,189.656 790.05,184.081 789.6,183.2C787.042,178.142 784.793,176.364 782.536,176.673C781.816,176.772 780.123,177.75 779.092,180.869C778.99,181.437 777.228,179.526 776.236,180.688C772.776,184.74 771.742,182.295 771.115,183.105C768.828,186.058 766.691,186.108 764.352,185.654C761.643,185.128 759.828,180.544 759.828,180.544C759.331,185.186 759.057,192.943 752.243,187.914C748.327,185.023 745.465,181.004 740.929,180.841C734.103,180.597 726.77,184.734 726.659,187.963C726.4,195.484 723.064,195.512 722.43,195.489C718.648,195.354 714.293,189.111 712.821,187.219C711.032,184.92 702.674,177.92 699.949,179.305C690.386,184.166 697.318,189.758 692.972,195.58C691.83,197.109 688.043,197.584 685.191,195.83C680.903,193.193 677.354,187.35 677.112,187.093C674.504,184.33 672.556,184.316 670.228,183.052C668.574,182.154 666.941,180.418 666.46,178.651C666.083,177.265 659.974,178.43 659.974,178.43C659.974,178.43 663.822,165.252 666.314,159.702C669.302,153.05 672.802,147.524 676.7,143.6C685,135.3 697,130 707.8,130C713.8,130 715.3,130.4 720.9,133.8C724.4,135.8 729.1,139.7 731.4,142.4C737.5,149.7 738.527,152 741,152C743.473,152 744.902,146.528 747.091,140.104C749.033,134.405 748.787,131.313 753,127.1C761.5,118.6 788.3,115.5 803,121.2C817.6,126.9 831.9,143.9 838.9,163.7C841.5,171 842.201,171.134 844.298,180.688Z" style="fill:rgb(8,223,28);fill-rule:nonzero;"/>
            </g>
            <g id="a">
                <path id="a_mid" d="M572,312.9C562.5,311.9 549,308.8 541.5,305.8C512.8,294.6 497.2,279.9 494,260.9C491.4,245.8 495.4,234 508.9,216.1C512.8,211 524,202.5 532.2,198.5C538.5,195.4 540.8,194.8 549.2,194.3C558.5,193.8 559.3,193.9 567.2,196.9C571.8,198.7 578,201.5 581.2,203.1C584.3,204.7 588.8,206.3 591.2,206.6C595.2,207.2 595.8,206.9 600,203.2C604.3,199.4 604.5,199 604.4,193.8C604.3,190.8 603.5,186.8 602.6,184.9C600.5,180.5 592,171 587.1,167.6C583.4,165 582.9,164.9 577.4,165.9C574.2,166.5 569.8,167.9 567.6,169.1C562.9,171.5 556.683,177 553,180C550.331,182.174 549.6,183.6 545.5,187.1C539.2,192.5 537,193.7 532.2,194.7C526.4,195.8 518,195.1 514.2,193.1C507.6,189.5 503.7,179.8 503.6,166.5C503.5,161.3 503.9,159.9 506.8,155.7C512.1,148.1 517.8,143.5 528.5,138.1C539,132.8 554.474,127.387 561.5,125.6C564.109,124.936 570.804,123.32 575.5,122.5C598.337,118.514 611.4,121 618.9,127.1C621.2,129 624.9,132.9 627.1,135.8C631.9,142.1 637.536,150.262 641,158.4C644.817,167.367 647.7,177.8 650,189.6C651.9,199.5 652.1,203.5 651.7,224.1C651.3,249.4 650.8,253.2 645,270.1C640,284.4 636.4,290.7 628.6,298.6C617.5,309.7 610.1,312.7 592,313.4C585.7,313.7 576.7,313.5 572,312.9ZM567.755,268.525C575.51,271.324 583.351,271.527 587.899,269.579C589.479,268.902 591.164,266.937 592.223,262.913C592.426,262.143 592.324,261.514 592.304,261.321C591.937,257.712 589.139,253.47 583.808,248.755C573.008,239.055 564.01,238.19 556.01,245.59C552.448,248.878 551.036,251.637 551.243,254.279C551.338,255.493 551.882,256.923 552.534,258.094C555.464,263.356 560.298,265.833 567.755,268.525Z" style="fill:rgb(106,240,42);fill-rule:nonzero;"/>
                <path id="a_bottom" d="M572,312.9C562.5,311.9 549,308.8 541.5,305.8C512.8,294.6 497.2,279.9 494,260.9C493.141,255.911 493.689,246.675 493.689,246.675C493.689,246.675 495.325,248.94 501.408,241.381C507.478,233.836 511.537,250.643 518.47,250.784C521.065,250.837 527.583,251.483 537.818,240.495C542.151,235.843 548.148,237.689 547.719,242.085C546.95,249.973 551.183,254.274 551.183,254.274C551.183,254.274 552.168,259.697 556.275,262.709C562.736,267.447 574.753,272.527 586.355,270.15C590.226,269.358 591.729,265.248 592.219,262.694C592.99,258.683 588.269,253.301 588.269,253.301C588.269,253.301 592.037,254.075 595.453,252.172C600.519,249.35 606.347,238.613 613.392,231.394C619.074,225.574 626.73,233.703 624.93,241.849C624.609,243.299 628.333,247.824 629.436,248.001C630.592,248.186 635.198,242.505 640.86,241.09C646.792,239.608 651.128,242.736 651.084,243.37C650.393,253.336 648.886,258.778 645,270.1C640,284.4 636.4,290.7 628.6,298.6C617.5,309.7 610.1,312.7 592,313.4C585.7,313.7 576.7,313.5 572,312.9Z" style="fill:rgb(193,253,32);fill-rule:nonzero;"/>
                <path id="a_top" d="M637.883,182.841C634.645,185.825 631.737,194.187 627.82,195.049C626.517,195.336 624.555,191.126 624.14,190.372C621.597,185.752 619.167,178.445 610.353,179.547C606.464,180.033 606.531,183.603 605.469,184.566C603.802,186.08 602.681,185.07 602.6,184.9C600.5,180.5 592,171 587.1,167.6C583.4,165 582.9,164.9 577.4,165.9C574.2,166.5 569.8,167.9 567.6,169.1C562.9,171.5 553,180 553,180C553,180 550.082,178.457 544.517,182.659C541.055,185.274 540.297,183.433 538.473,184.352C537.187,185 536.27,187.865 533.861,188.367C532.748,188.578 531.188,185.674 528.794,185.518C525.876,185.329 525.618,189.352 520.037,188.501C517.69,188.143 518.08,186.225 516.053,185.355C514.322,184.612 512.432,184.995 512.353,184.722C511.192,180.698 507.871,180.143 506.508,180.332C506.226,180.371 505.231,179.721 505.143,179.383C504.168,175.637 503.636,171.303 503.6,166.5C503.5,161.3 503.9,159.9 506.8,155.7C512.1,148.1 517.8,143.5 528.5,138.1C539,132.8 554.807,127.289 561.5,125.6C563.668,125.053 572.782,122.993 575.5,122.5C598.309,118.36 611.4,121 618.9,127.1C621.2,129 624.9,132.9 627.1,135.8C634.648,145.749 637.642,151.509 641,158.4C643.885,164.321 647.246,177.147 647.246,177.147C647.246,177.147 640.676,180.268 637.883,182.841Z" style="fill:rgb(8,223,28);fill-rule:nonzero;"/>
            </g>
            <g id="g">
                <path id="g_mid" d="M362.735,219.125C362.435,219.125 360.2,185.6 360.2,185.6L359.8,174.1C359.2,159.7 360.2,152.2 363.6,147.3C365,145.2 367.3,141.3 368.7,138.5C371.8,132.3 376.3,127.5 381.5,124.7C387.7,121.4 405.8,121.7 425.5,125.5C433.8,127.1 442.5,128.4 445,128.4C449.2,128.5 449.5,128.3 449.5,125.8C449.5,121.8 452,120 459.1,119C466.5,117.9 474.8,119.3 477.9,122.1C480.9,125 485.7,142.9 488.4,162C495.4,211.7 492.6,270.8 482.4,291.2C477.5,300.8 463.1,309.2 447,311.7C433.2,313.8 406.2,313 396,310C382,306 373,298.9 367.5,287.6C362.8,277.8 361.3,267.8 362.8,256.5C364.3,244.8 366.1,241.3 371.4,239.9C377.3,238.2 384.8,237.8 390,238.9C392.5,239.5 396.6,240.2 399.2,240.5C402.8,241 404.9,242 407.6,244.6C411.2,248 411.3,248.1 410.7,254.1C409.9,260.8 411.3,265.3 415.1,268.9C417.9,271.5 422.9,271.6 430.8,269.4C442,266.2 448,261.9 451.2,254.9C453.7,249.2 455.4,234.6 454.5,226.3L453.7,219.5L452.5,222.9C451.1,227.1 447.7,229.8 442.4,231C434.9,232.7 408.3,234.2 392,233.8C371.8,233.4 369.2,232.5 365.2,224.3C363.8,221.4 363.135,219.125 362.735,219.125ZM432.9,194.5C444.8,188.4 446.3,164.7 435.4,156.1C430.1,151.9 412.4,153.9 408,159.2C405.3,162.5 403.1,169.4 402.4,177C401.4,187.4 405,192.8 415,196.1C418.6,197.3 429.4,196.4 432.9,194.5Z" style="fill:rgb(106,240,42);fill-rule:nonzero;"/>
                <g id="g_bottom" transform="matrix(0.744353,0,0,0.744353,-1.87816,0.159385)">
                    <path d="M609.747,341.481C610.964,339.109 612.162,338.335 614.329,338.335C616.882,338.335 619.972,335.648 627.226,327.05C632.466,320.87 637.705,315.362 638.78,314.959C643.885,312.944 645.9,314.153 647.512,319.929C649.796,328.662 653.692,334.304 657.588,334.304C657.94,334.304 658.254,334.312 658.534,334.337C661.058,332.218 662.512,332.31 662.068,337.295C659.974,360.757 656.083,380.036 650.602,390.998C644.02,403.895 624.674,415.18 603.044,418.539C595.549,419.679 585.155,420.183 574.525,420.112C573.01,420.17 571.74,420.186 570.802,420.151C570.26,420.122 569.506,420.075 568.595,420.013C554.913,419.65 541.662,418.353 534.529,416.255C515.72,410.881 503.629,401.342 496.24,386.161C489.926,372.996 487.911,359.561 489.926,344.38C490.165,342.517 490.409,340.809 490.667,339.241C490.838,338.201 494.815,338.215 495.63,337.7C497.22,336.696 500.045,334.743 502.42,332.558C512.227,323.288 516.526,320.601 521.228,321.139C525.662,321.542 527.14,323.154 528.349,329.199C529.289,333.633 534.663,335.648 545.948,335.648L554.648,335.784C554.648,335.784 554.637,336.793 554.562,337.938C554.479,339.198 554.33,340.628 554.277,341.156C553.202,350.157 555.083,356.203 560.188,361.039C563.95,364.532 570.667,364.666 581.281,361.711C596.327,357.412 604.388,351.635 608.687,342.231C608.909,341.723 609.267,341.493 609.747,341.481Z" style="fill:rgb(193,253,32);fill-rule:nonzero;"/>
                </g>
                <g id="g_top" transform="matrix(0.744353,0,0,0.744353,-1.87816,0.159385)">
                    <path d="M597.026,239.487C597.026,239.487 599.523,218.469 587.545,209.654C577.717,202.272 553.891,209.173 550.595,213.602C544.101,222.331 543.471,238.365 542.995,239.078C542.995,239.078 533.934,245.775 530.978,251.552C526.411,260.687 519.708,260.952 517.424,251.682C517.021,249.936 513.839,247.652 511.153,246.443C508.734,245.368 506.113,242.49 505.172,241.281C502.62,238.191 500.539,239.726 493.15,245.771L486.633,250.382L486.433,249.13L485.896,233.68C485.09,214.334 486.433,204.259 491.001,197.676C492.882,194.854 495.972,189.615 497.852,185.853C502.017,177.524 508.063,171.075 515.049,167.314C523.378,162.88 547.694,163.283 574.16,168.389C585.311,170.538 596.999,172.285 600.357,172.285C606,172.419 606.403,172.15 606.403,168.792C606.403,163.418 609.762,161 619.3,159.656C629.242,158.178 640.392,160.059 644.557,163.821C648.587,167.717 655.036,191.765 658.663,217.424C660.426,229.944 661.727,242.907 662.585,255.887C662.213,251.632 661.729,249.145 661.138,249.234C655.227,249.905 650.871,249.264 647.378,245.368L643.482,241.203C643.482,241.203 638.306,246.676 632.261,247.563C628.637,248.095 623.33,244.428 623.33,244.428C621.229,245.461 620.758,248.18 619.07,249.671C613.521,254.573 611.508,257.594 605.597,246.309C602.416,232.726 598.706,234.687 597.026,239.487" style="fill:rgb(8,223,28);fill-rule:nonzero;"/>
                </g>
            </g>
            <g id="y" transform="matrix(0.994804,0,0,1,0.995008,0)">
                <g id="y_mid" transform="matrix(1,0,0,1,0.799493,0.199139)">
                    <path d="M193.432,190.684C193.268,190.41 191.29,186.27 190.965,180.068C190.35,168.365 191,150.35 191,149.5C191,146 193.8,138.1 196.8,133.4C199.6,128.8 210.1,121.4 216.2,119.6C218.2,119 230.6,117.1 235,119.1C240.6,121.6 243.6,124.4 246.2,129.4C248.6,134.1 248.2,138.2 243.9,152C242.3,157.2 241,162.2 241,163.1C241,165.6 245.7,170.8 249.9,172.9C260.2,178.1 279.9,177.5 289.1,171.8C294,168.9 297,164.8 297,161.4C297,160.4 295.4,156.3 293.5,152.3C288.9,143.1 288.1,136.7 290.9,132.3C295.3,125.3 311.8,115.4 320.8,114.3C330.4,113.2 339.3,119.5 347.6,133.5C352.1,140.9 359.044,156.7 359.044,161.4C359.144,164.9 362.322,218.917 361.922,218.917C361.622,218.917 361,222.7 360.7,227.3C359.7,242.8 355.4,260.6 349.7,273C344.2,285.2 343.5,286.2 336.9,292.4C321.2,306.9 303.8,313 278.2,313C245.9,313 218.3,302.8 201.3,284.7C193.4,276.2 190.6,269.3 191.3,259.7C192.2,246.7 201.8,232.5 211.4,230.1C218.2,228.4 230.5,230.6 237,234.7C239.9,236.5 243.9,241 244,242.5C244,244.8 250.3,250.9 253.7,252.1C263,255.1 283.5,249.3 291.6,241.4C299.8,233.3 300.6,227.9 294.3,224.7C288.6,221.8 283.7,221.9 268.8,225.1C252.3,228.6 243.2,229 231.1,226.6C214,223.3 206.1,217.3 198.5,201.7C196,196.6 193.553,190.886 193.432,190.684Z" style="fill:rgb(106,240,42);fill-rule:nonzero;"/>
                </g>
                <g id="y_bottom" transform="matrix(0.744353,0,0,0.744353,-1.87816,0.159385)">
                    <path d="M267.39,327.472C267.46,327.35 275.371,321.969 279.139,322.885C281.02,323.288 285.453,326.512 288.946,329.871C294.723,335.648 295.395,335.917 299.291,334.573C301.575,333.767 306.277,330.946 309.635,328.393C317.293,322.482 320.786,322.348 324.682,327.587C326.428,329.871 328.444,331.617 329.25,331.617C330.19,331.617 333.146,333.23 335.967,335.11C342.819,339.947 350.342,341.156 363.239,339.544C380.972,337.394 382.585,336.991 385.943,333.901C387.824,332.289 391.183,329.468 393.467,327.587C395.885,325.706 400.184,322.213 403.139,319.929C411.066,313.347 418.992,314.287 418.992,321.676C418.992,323.288 419.529,324.9 420.335,325.169C421.007,325.438 421.813,326.915 422.082,328.528C422.888,333.901 425.709,335.782 432.292,335.513C439.681,335.11 441.831,334.036 450.429,326.512C461.042,317.243 466.147,317.646 468.297,327.99C469.103,332.021 473.267,335.648 477.163,335.648C478.234,335.648 479.515,336.385 480.074,337.3C481.612,336.679 483.084,337.986 483.014,338.272C480.464,348.718 477.159,358.64 473.401,366.815C466.012,383.205 465.072,384.548 456.205,392.878C435.113,412.358 411.737,420.553 377.344,420.553C333.951,420.553 296.872,406.849 274.033,382.533C263.42,371.114 259.658,361.844 260.599,348.947C261.104,341.645 263.653,334.061 267.39,327.472Z" style="fill:rgb(193,253,32);fill-rule:nonzero;"/>
                </g>
                <g id="y_top" transform="matrix(0.744353,0,0,0.744353,-1.87816,0.159385)">
                    <path d="M260.323,244.206C260.248,243.485 260.189,242.737 260.148,241.966C259.322,226.242 260.196,202.04 260.196,200.899C260.196,196.197 263.957,185.584 267.988,179.269C271.749,173.089 285.856,163.148 294.051,160.73C296.738,159.924 313.396,157.371 319.308,160.058C326.831,163.417 330.861,167.178 334.354,173.896C337.578,180.21 337.041,185.718 331.264,204.257C329.115,211.243 327.368,217.961 327.368,219.17C327.368,222.528 333.682,229.514 339.325,232.336C353.162,239.321 379.628,238.515 391.988,230.858C398.571,226.962 402.601,221.454 402.601,216.886C402.601,215.542 400.452,210.034 397.899,204.661C391.719,192.301 390.645,183.703 394.406,177.792C400.317,168.387 422.484,155.087 434.575,153.609C447.472,152.132 459.429,160.595 470.58,179.404C476.625,189.345 485.954,210.572 485.954,216.886C486.019,219.14 487.72,249.612 487.72,249.612C487.72,249.612 479.04,257.13 476.697,258.235C472.665,260.135 470.559,257.798 468.968,253.026C466.55,245.637 463.326,242.816 456.34,242.01C451.235,241.472 450.026,241.875 446.533,245.234C441.562,250.07 435.919,253.698 433.233,253.698C429.471,253.698 425.709,248.055 425.709,242.681C425.709,239.86 425.038,237.576 424.231,237.576C423.56,237.576 420.067,239.726 416.708,242.278C409.588,247.786 407.573,248.055 403.408,244.159L400.318,241.338L394.676,247.518C388.093,254.772 381.913,255.981 378.151,250.742C377.076,248.995 374.658,245.906 372.912,243.89C369.687,240.129 369.687,240.129 364.582,242.144C361.761,243.353 358.537,245.502 357.596,247.115C355.984,249.398 354.372,249.667 346.849,249.398C339.863,249.13 337.848,249.533 336.907,251.414C334.623,255.31 331.534,253.966 322.667,245.502C312.86,236.098 310.979,235.964 303.456,244.293C298.753,249.398 291.768,253.698 288.275,253.698C287.334,253.698 284.647,251.682 282.229,249.398C275.915,242.681 269.601,239.726 263.958,240.8C261.567,241.256 260.148,242.144 260.148,242.144C260.148,242.144 260.311,243.823 260.323,244.206Z" style="fill:rgb(8,223,28);fill-rule:nonzero;"/>
                </g>
            </g>
            <g id="P">
                <g id="p_mid" transform="matrix(1,0,0,1,-0.159349,-0.379322)">
                    <path d="M66,313.1C57.5,312 51.3,310 49.1,307.5C45.5,303.4 39.5,274.1 37.5,250.5C37.1,246.7 36.7,243.3 36.5,243C35.5,241.4 34.5,213.7 34.5,189.5C34.5,161.3 32.65,141.124 56.083,126.221C65.592,120.172 87.72,114.795 121.454,117.51C157.729,120.43 174.2,129.4 180.7,136.1C186.7,142.3 187.872,144.144 191.065,153.822C192.281,157.507 191.415,172.976 191.6,180.036C191.764,186.27 192.27,192.5 191.6,198.7C190.817,205.95 189.8,212.2 186.3,223.5C184.6,228.9 177.4,238.3 170.6,243.7C168.3,245.5 166,247.4 165.4,247.9C162.9,249.9 154.5,253.2 147.2,255C142.2,256.2 130.855,257.29 123.466,257.363C116.361,257.434 107.076,258.199 103.11,259.676C101.328,260.339 99.971,261.085 98.731,263.093C98.358,263.699 99.022,267.22 99.317,268.614C100.214,272.851 100.587,275.152 101.389,278.383C102.902,284.481 106.707,299.147 104.51,303.459C100.548,311.236 90.6,313.1 82.3,313.5C76.9,313.7 69.6,313.5 66,313.1ZM123.7,210.9C135.1,206.7 142,195.2 142,180.5C142,173.8 141.8,173.1 138.5,169.3C134.3,164.4 128.8,162 119.9,161.3C103,159.9 92.2,169.4 91.2,186.7C90.8,193.1 91.1,194.5 93.4,198.4C99.7,209.2 113.3,214.8 123.7,210.9Z" style="fill:rgb(106,240,42);fill-rule:nonzero;"/>
                </g>
                <path id="p_bottom" d="M98.4,309.2C91.07,313.505 79.043,314.066 67.094,313.199C61.497,312.793 49.5,309.727 47.8,305.527C45.1,298.927 40.781,279.135 38.381,260.035C37.381,252.635 38.2,251.6 39.8,249.5C43.3,245.1 51.1,239 53.3,239C54.6,239 57,240.3 58.8,242C63.6,246.4 66,246.6 71.5,243.4C74.1,241.9 76.4,240.1 76.7,239.4C77,238.6 77.8,238 78.5,238C79.1,238 80.5,237.1 81.5,236C83.9,233.3 88.6,233.4 90,236.1C90.7,237.2 91,240 90.8,242.3L90.5,246.5L95.4,246.4C99,246.4 100.6,245.9 101.9,244.3C103.7,242 107.1,240 109.4,240C110.2,240 111.4,241.6 112.1,243.5C113.6,247.6 114.7,247.5 121.5,242.9C128.1,238.5 132.3,239.4 133.4,245.5C134.1,248.9 134.2,249 139,249C143.5,249 144.3,248.6 148.5,244.6C152.9,240.3 156.6,238.2 157.7,239.4C158,239.7 158.5,241.4 158.9,243.2C159.4,245.5 160.2,246.6 162,247L164.683,247.897C164.683,247.897 163.185,248.928 161.377,249.743C158.626,250.983 155.11,252.213 154.7,252.4C149,255 137.7,256.7 124.4,256.9C107.4,257.2 102.3,259.117 98.5,262.9C98.212,264.732 99.6,271.5 101.6,279.6C103.6,287.8 105.2,296.2 105.3,298.2C105.5,302.4 102.9,306.6 98.4,309.2Z" style="fill:rgb(193,253,32);fill-rule:nonzero;"/>
                <g id="p_top" transform="matrix(0.744353,0,0,0.744353,-0.610017,-0.116225)">
                    <path d="M49.619,242.099C47.214,240.103 46.19,237.641 47.458,220.097C47.854,214.616 48.739,207.932 50.114,202.532C58.737,168.674 94.056,153.306 155.334,156.748C219.585,160.358 250.468,177.263 257.292,206.299C258.589,211.816 258.238,216.423 258.252,221.969C258.255,223.054 257.895,227.086 257.918,233.93C257.931,237.542 258.025,242.243 258.055,242.732C257.078,243.011 251.337,246.879 249.916,246.583C248.495,246.287 245.572,244.647 243.422,242.938C236.122,237.137 224.486,240.586 217.454,250.635C209.612,261.843 202.655,259.252 199.584,243.98C199.011,241.13 191.289,238.099 191.289,236.256C191.289,229.648 182.534,222.56 180.114,221.335C172.905,217.689 163.343,215.524 153.974,216.339C139.038,217.636 122.995,228.356 122.995,252.627C122.995,259.04 113.957,244.373 114.718,242.25C115.654,239.641 111.922,241.155 108.287,244.859C103.361,249.878 92.087,257.247 90.353,256.582C87.407,255.451 90.007,247.061 94.723,242.48C99.323,238.014 98.077,235.576 92.823,238.761C90.995,239.869 86.674,241.791 83.219,243.033C78.693,244.66 76.129,246.311 74.044,248.944C68.344,256.141 51,252.863 51,244.588C51,243.849 50.379,242.729 49.619,242.099Z" style="fill:rgb(8,223,28);fill-rule:nonzero;"/>
                </g>
            </g>
        </g>
        <g id="c" transform="matrix(0.312039,0,0,0.312039,390.718,399.086)">
            <g id="c-extrusion" transform="matrix(1.02371,0,0,1,-0.0419524,0)">
                <path d="M721.851,550.457C727.928,550.457 827.348,533.112 830.075,576.298C836.462,677.412 730.733,884.128 643.719,942.226C595.227,974.604 509.776,1019.62 389.313,1023.31C312.833,1025.65 295.55,1021.96 261.937,1013.38C236.346,1007.04 150.829,957.052 116.958,932.22C75.565,901.872 33.515,807.197 25.506,778.197C-30.302,576.1 8.064,139.815 185.865,78.764C192.119,76.617 247.501,27.528 308.818,14.681C447.417,-14.357 522.335,18.904 534.822,24.158C595.781,49.808 653.353,90.498 660.872,96.816C668.39,103.134 756.34,187.743 787.01,250.792C798.526,274.467 805.342,296.115 812.092,339.024C835.733,489.315 490.214,504.804 477.641,401.466C475.891,387.082 466.894,342.731 456.232,332.791C439.136,316.855 442.025,311.346 402,314.612C351.26,318.752 329.799,353.696 326.218,394.37C315.165,519.909 301.873,569.753 352.679,610.82C362.298,618.595 411.291,670.367 464.573,651.936C500.5,639.508 508.146,590.677 513.668,585.155C518.691,580.132 522.063,577.845 526.68,573.227C533.254,566.653 579.914,558.047 596.074,558.047C599.784,558.047 633.609,558.462 634.024,558.047C638.412,553.659 669.719,560.303 673.058,556.963C678.054,551.967 710.725,550.457 721.851,550.457Z" style="fill:rgb(0,1,0);fill-rule:nonzero;"/>
            </g>
            <g id="c-middle" transform="matrix(1.02371,0,0,1,-0.0419524,0)">
                <path d="M291,519.706C288.27,524.9 287.724,533.405 288.031,551.262C288.916,587.817 295.108,601.806 321.644,627.53C347.296,652.351 364.987,662.73 406.562,676.269C451.674,691.613 473.788,691.613 495.46,676.269C516.689,661.828 524.65,651.448 541.899,619.858C557.821,589.17 565.339,585.56 619.297,582.401C641.411,580.596 677.678,577.437 700.234,574.729C752.423,567.96 788.69,571.119 796.651,581.95C814.342,606.771 791.786,680.33 743.578,755.696C724.56,785.029 644.95,864.907 619.74,879.8C607.798,887.02 583.031,896.497 564.455,901.01C518.458,912.292 421.157,911.841 371.179,900.108C261.937,873.933 177.904,821.132 123.946,744.413C100.505,710.567 76.622,664.535 69.103,639.263C50.742,622.578 51.964,364.924 73.084,332.839C100.505,197.904 184.538,98.621 309.26,54.846C345.97,42.21 354.373,40.856 402.581,40.856C510.497,41.307 590.549,77.41 675.909,165.411C709.522,199.709 722.348,216.858 732.963,240.325C740.482,257.023 751.096,277.782 756.404,286.356C770.999,310.726 791.222,347.507 768.566,382.281C746.071,416.806 558.984,414.773 552.464,388C545.983,361.388 535.596,349.417 531,317C517.625,222.658 355.13,238.706 317,302C287.5,350.969 291,519.706 291,519.706Z" style="fill:rgb(153,70,242);fill-rule:nonzero;"/>
            </g>
            <g id="c-bottom" transform="matrix(4.52766,0,0,4.51288,-3764.68,-498.884)">
                <path d="M930.5,311C917.7,310.3 914.2,309.7 902.5,305.9C876.6,297.5 853.2,273.9 846.8,249.7C846.8,249.7 845.894,245.341 846.511,242.24C846.796,240.806 850.5,240.4 850.5,240.4C853.3,237.9 856.6,235.2 857.9,234.3C860.1,232.7 860.3,232.7 862.1,235.1C863.1,236.4 864.7,239.2 865.6,241.3C867.2,244.9 867.5,245 872.5,245C877,245 878,244.6 881,241.5C883.4,239 885.3,238 887.5,238C891.1,238 892.8,239.2 895.9,243.8C897.1,245.5 898.6,247 899.2,247C899.7,247 902.3,248.8 904.8,251.1C910.3,255.9 918.9,260.1 928.2,262.6C937.2,265 941.7,263.7 948.1,256.9C951,253.9 953.6,252 955,252C956.9,252 969.5,246.2 974.9,242.9C976.4,241.9 977.9,242 982.1,243.2C985.1,244 989.5,244.6 992,244.4C997.3,244.1 1003.9,241.5 1004.7,239.5C1006.2,235.3 1013,239.7 1013,244.8C1013,256.1 999.2,280.6 985.3,294.1C974.6,304.5 965.9,309.1 954.5,310.5C944.9,311.6 943.4,311.7 930.5,311Z" style="fill:rgb(198,146,254);fill-rule:nonzero;"/>
            </g>
            <g id="c-top" transform="matrix(1.02371,0,0,1,-0.0419524,0)">
                <path d="M65.546,358.465C65.203,360.038 69.738,337.922 73.084,332.839C100.505,197.904 184.538,98.621 309.26,54.846C345.97,42.21 354.373,40.856 402.581,40.856C510.497,41.307 590.549,77.41 675.909,165.411C709.522,199.709 722.348,216.858 732.963,240.325C740.482,257.023 787.585,339.53 751.194,280.69C738.368,277.982 702.522,280.239 683.504,289.716C670.236,296.034 656.083,305.511 651.66,310.475C639.719,324.014 621.585,321.306 603.894,303.254C589.299,288.813 588.414,288.362 585.761,296.936C582.974,305.822 540.505,306.909 531,306.227C531,306.227 530.735,309.837 530.802,315.677C516.101,222.809 354.951,239.003 317,302C310.99,311.977 306.349,326.926 302.77,344.406L304,325.997C293.036,325.642 271.03,351.475 269.013,348.183C260.61,335.095 230.977,313.434 221.689,313.434C210.632,313.434 181.884,342.767 166.847,368.491C157.117,385.64 150.04,384.286 130.58,363.075C112.447,343.219 97.852,340.06 79.718,352.244L65.546,358.465Z" style="fill:rgb(104,7,207);"/>
            </g>
        </g>
        <g id="e1" serif:id="e" transform="matrix(1.43823,0,0,1.43823,-549.373,239.665)">
            <g id="e-shadow" transform="matrix(0.744353,0,0,0.744353,-1.87816,0.159385)">
                <path d="M1161.47,407.188C1143.12,390.566 1134.18,360.225 1130.7,335.715C1127.31,311.881 1125.42,237.207 1141.98,209.558C1148.97,198.556 1165.01,183.286 1175.53,174.05C1182.12,168.269 1200.67,158.118 1209.12,155.481C1268.43,136.969 1328.89,170.649 1358.63,222.959C1370.14,243.212 1371.18,267.401 1373.26,289.896C1373.97,297.61 1374.55,299.828 1368.76,305.69C1367.38,307.088 1359.91,309.888 1360.87,310.456C1362.22,311.256 1370.29,313.789 1372.51,316.185C1377.62,321.709 1375.37,337.912 1373.56,344.025C1366.05,369.409 1355.27,388.28 1328.64,416.762C1307.42,439.455 1284.32,447.168 1251.85,447.17C1199.55,447.173 1171.68,416.438 1161.47,407.188ZM1245.62,341.29C1244.21,340.763 1239.45,338.913 1240.01,337.967C1240.65,336.892 1246.99,337.11 1248.94,337.059C1252.79,336.96 1260.71,336.771 1261.74,337.797C1262.32,338.381 1260.78,340.517 1260.26,341.156C1257.71,344.112 1253.41,344.246 1245.62,341.29Z" style="fill:rgb(0,1,0);"/>
            </g>
            <path id="e-mid" d="M915.4,310C890.7,304.2 871.7,292.5 859.5,275.5C854.2,268 848.143,255.637 847.1,252.2C843.25,239.518 846.7,190.7 848,184.3C854.2,154.4 873.2,132.4 901.4,122.7C909.7,119.9 911.6,119.6 922.5,119.6C946.9,119.7 965,127.7 984.3,147.2C991.9,154.8 994.8,158.6 997.2,163.8C998.9,167.5 1001.3,172.1 1002.5,174C1005.8,179.4 1009,194 1009.7,207C1010.2,217 1010.1,218.8 1008.6,220.2C1004.6,224.3 989.2,226 957,226C935.5,226.1 902.8,224.6 901.1,223.6C900.7,223.3 899.4,223.7 898.4,224.5C896.8,225.6 896.5,227 896.6,232.7C896.8,240.8 898.2,243.9 904.2,249.6C910,255.1 914,257.4 923.4,260.4C933.6,263.8 938.6,263.8 943.5,260.4C948.3,257.2 950.1,254.9 954,247.9C957.6,241.1 959.3,240.3 971.5,239.6C976.5,239.2 984.7,238.5 989.8,237.9C1001.6,236.4 1009.8,237.1 1011.6,239.5C1015.6,245 1007.61,267.208 999.6,278C990.85,289.783 973.133,304.867 959.1,310.2C945.483,315.375 926.7,312.6 915.4,310ZM953.301,188.795C960.3,185.245 960.401,182.995 954.301,177.295C951.701,174.995 946.501,171.395 942.701,169.395C933.201,164.395 926.301,164.295 918.001,168.995C908.701,174.195 903.101,181.095 905.501,184.395C907.401,186.995 913.201,190.095 917.601,190.895C920.201,191.395 928.201,191.695 935.301,191.495C946.801,191.295 948.901,190.995 953.301,188.795Z" style="fill:rgb(153,70,242);fill-rule:nonzero;"/>
            <path id="e-bottom" d="M915.4,310C890.7,304.2 871.7,292.5 859.5,275.5C854.2,268 848.643,256.913 847.099,252.006C846.316,249.515 845.963,246.467 845.849,244.662C845.849,244.662 850.035,243.131 852.171,241.133C854.492,238.961 857.52,234.318 859.421,233.824C863.646,232.725 867.463,245.149 868.323,245.671C869.184,246.193 878.128,246.496 879.014,245.471C883.406,240.386 890.428,236.145 893.431,240.239C895.241,242.707 897.537,247.018 900.157,248.101C901.106,248.493 902.327,248.032 902.327,248.032C902.327,248.032 904.74,250.108 904.913,250.268C910.341,255.292 914.39,257.524 923.4,260.4C933.6,263.8 938.6,263.8 943.5,260.4C947.145,257.97 949.06,256.059 951.478,252.215C952.245,250.997 957.62,253.098 965.253,249.516C976.375,244.298 977.437,240.052 981.251,242.813C985.726,246.054 987.611,245.008 993.844,245.324C1004.38,245.859 1005.31,237.213 1008.93,238.352C1010.13,238.732 1011.15,238.9 1011.6,239.5C1015.6,245 1007.61,267.208 999.6,278C990.85,289.783 973.133,304.867 959.1,310.2C945.483,315.375 926.7,312.6 915.4,310Z" style="fill:rgb(198,146,254);fill-rule:nonzero;"/>
            <path id="e-top" d="M1006.3,184.38C1006.56,185.396 1000.28,179.352 993.999,180.776C981.283,183.657 983.188,189.019 978.097,189.873C971.966,190.902 967.482,179.035 966.858,181.812C965.881,186.162 963.835,190.772 957.481,186.227C957.127,185.974 959.509,185.207 958.376,182.235C956.295,176.779 938.186,164.162 927.852,165.608C916.427,167.206 903.439,178.535 905.164,183.785C905.926,186.105 905.637,190.321 900.038,190.094C890.009,189.825 889.385,179.676 882.167,180.827C875.385,181.909 871.592,192.172 867.226,195.781C864.545,197.998 862.159,187.096 854.763,187.009C851.701,186.973 850.448,189.405 849.092,190.668C848.337,191.371 847.4,191.225 847.423,190.806C847.599,187.628 847.793,185.319 848,184.3C854.2,154.4 873.2,132.4 901.4,122.7C909.7,119.9 911.6,119.6 922.5,119.6C946.9,119.7 965,127.7 984.3,147.2C991.9,154.8 994.8,158.6 997.2,163.8C998.9,167.5 1001.3,172.1 1002.5,174C1003.84,176.188 1005.16,179.888 1006.3,184.38Z" style="fill:rgb(104,7,207);fill-rule:nonzero;"/>
        </g>
    </g>
    <g id="snake-tail">
        <path id="snake_tail_base" d="M359.539,568.196C376.328,592.171 434.458,633.823 472.406,645.044C518.279,658.609 587.405,660.336 679.897,656.156C766.077,652.261 877.439,609.231 885.968,606.044C946.203,583.541 988.401,586.899 1002.77,588.423C1054.38,593.898 1092.66,618.872 1105.56,652.899C1107.03,656.798 1107.96,661.403 1108.11,662.156C1115.54,698.952 1092.31,745.481 1006.45,759.564C995.342,761.385 982.115,762.218 979.991,762.352C947.147,764.422 916.417,761.664 900.568,760.005C900.027,759.949 897.098,759.621 897.096,759.619C896.888,759.415 896.68,759.21 896.472,759.005L897.086,758.381C920.666,755.248 960.94,749.126 998.448,734.044C1001.31,732.895 1040.04,718.757 1054.57,696.061C1062.67,683.412 1057.6,676.782 1056.5,675.201C1056.44,675.115 1056.39,675.039 1055.73,674.157L1055.72,674.162C1046.89,661.435 1021.07,652.141 985.406,657.389C970.846,659.532 947.275,664.381 914.644,682.241C888.624,696.484 860.366,709.234 855.562,711.402C791.611,740.257 741.065,754.86 723.718,760.028C655.604,780.321 608.2,785.752 597.768,787.339C538.289,796.383 497.033,794.764 478.312,794.054C412.814,791.57 368.605,777.343 347.322,770.155C284.795,749.036 228.899,704.313 207.141,681.184" style="fill:rgb(240,204,0);stroke:black;stroke-width:5px;"/>
        <g id="snake_tail_light" transform="matrix(1,5.64119e-17,-3.05311e-16,1.01623,2.04636e-12,-12.3165)">
            <path d="M896.676,759.017L897.074,758.592C951.201,752.838 984.112,741.815 992.331,739.065C1015.5,731.312 1029.28,723.735 1036.57,719.259C1037.44,718.722 1042.98,714.485 1047.89,709.526C1065.93,691.322 1061.39,679.41 1059.79,675.375C1059.07,673.557 1058.08,671.773 1057.91,671.47C1057.67,671.036 1057.64,670.094 1056.18,667.794C1050.75,659.228 1037.44,650.208 1025.71,645.707C1025.23,645.522 1021.8,644.491 1015.78,643.683C997.914,641.282 974.998,641.164 974.948,641.163C972.129,641.103 969.766,640.979 962.226,641.773C931.009,645.062 898.749,656.775 888.367,660.635C887.104,661.105 877.432,665.466 876.485,665.893C855.906,675.173 822.54,687.708 819.947,688.741C812.868,691.56 799.621,697.347 786.188,702.253C739.683,719.239 693.323,727.941 685.571,729.433C653.385,735.629 626.433,738.765 608.696,740.444C604.338,740.856 589.619,741.536 578.085,741.82C522.481,743.188 469.149,738.496 418.693,722.692C408.655,719.548 366.963,709.208 319.424,677.321C295.988,661.6 277.151,645.53 259.994,628.072C254.961,622.951 248.884,616.425 247.698,614.923C247.43,614.582 244.53,610.909 244.369,610.65C242.42,607.502 240.145,604.529 238.523,601.207C236.944,597.975 235.712,594.561 234.814,591.085C233.931,587.661 233.401,584.133 233.206,580.605C233.012,577.1 233.166,573.56 233.653,570.083C234.14,566.605 234.963,563.156 236.112,559.833C237.269,556.489 238.748,553.233 240.539,550.171C242.357,547.063 244.481,544.104 246.889,541.411C246.901,541.399 255.12,533.868 255.128,533.863C258.326,531.945 261.347,529.707 264.723,528.11C268.008,526.556 271.477,525.344 275.01,524.461C278.49,523.591 282.075,523.07 285.66,522.878C289.222,522.687 292.819,522.839 296.353,523.318C299.887,523.797 303.391,524.607 306.769,525.738C310.167,526.876 313.476,528.331 316.588,530.094C319.746,531.883 322.753,533.973 325.489,536.343C331.277,541.355 330.94,541.68 335.67,547.673C336.608,548.86 340.725,555.506 348.123,565.17C365.483,587.848 380.515,600.249 383.738,602.966C408.038,623.447 431.285,634.651 445.907,640.896C445.944,640.912 450.996,642.83 457.753,645.007C505.526,660.404 557.255,663.368 603.857,662.89C607.323,662.854 662.21,665.356 729.772,655.323C763.895,650.256 782.974,644.572 790.099,642.64C801.012,639.682 801.022,639.727 807.413,637.805C851.965,624.408 856.102,622.046 869.867,617.329C873.303,616.152 888.961,609.816 910.249,603.841C936.572,596.452 955.258,594.205 966.707,593.42C972.364,593.032 980.77,593.425 981.991,593.482C998.957,594.276 1026.6,596.67 1040.75,601.406C1041.5,601.658 1054.02,605.899 1068.12,615.376C1078.15,622.112 1098.06,637.597 1103.68,659.958C1104.03,661.376 1104.31,665.626 1104.36,668.049C1104.77,685.998 1098.6,715.97 1055.73,734.009C1050.56,736.185 1047.64,737.049 1046.34,737.612C1034.07,742.941 1007.63,752.855 957.55,757.446C930.044,759.967 906.841,759.606 897.11,759.408C896.794,759.402 896.909,759.227 896.676,759.017Z" style="fill:rgb(254,227,45);"/>
        </g>
    </g>
    <g id="controller" transform="matrix(1.74196,0.213885,-0.213885,1.74196,-1198.25,-299.016)">
        <g id="controller_shadow" transform="matrix(0.565541,-0.0694397,0.0694397,0.565541,696.515,84.3871)">
            <path d="M1419.81,473.179C1401.86,469.487 1386.35,459.968 1375.04,446.884C1374.98,446.81 1374.85,446.662 1374.85,446.662L1259.66,432.449C1259.66,432.449 1259.45,432.597 1259.34,432.671C1243.52,443.799 1223.68,449.326 1202.99,446.782C1158.7,441.334 1127.16,400.948 1132.61,356.65C1138.06,312.352 1178.44,280.81 1222.74,286.257L1446.05,313.721C1466.36,316.219 1484,326.07 1496.61,340.276C1460.72,398.605 1438.4,442.425 1419.81,473.179Z" style="fill-opacity:0.15;"/>
        </g>
        <g id="controller_base" transform="matrix(1,1.38778e-17,-1.38778e-17,1,0.0303899,0.00185873)">
            <path d="M1543.54,151.836C1568.96,151.841 1589.6,172.491 1589.6,197.922C1589.59,223.352 1568.94,243.995 1543.52,243.99C1531.63,243.988 1520.8,239.476 1512.62,232.076C1512.58,232.039 1512.5,231.964 1512.5,231.964L1446.37,231.924C1446.37,231.924 1446.26,232.023 1446.21,232.072C1438.03,239.464 1427.2,243.967 1415.32,243.965C1389.89,243.96 1369.25,223.31 1369.26,197.879C1369.26,172.448 1389.91,151.806 1415.34,151.811C1428.76,151.814 1531.15,151.834 1543.54,151.836Z" style="fill:rgb(203,207,204);stroke:black;stroke-width:2.65px;stroke-linecap:round;stroke-miterlimit:1.5;"/>
        </g>
        <g id="panel-right">
            <g id="back" transform="matrix(1.25194,6.94183e-05,-6.94266e-05,1.25209,702.158,-210.326)">
                <path d="M671.126,294.011C688.787,293.917 703.201,308.18 703.295,325.841C703.388,343.502 689.126,357.916 671.465,358.01C653.804,358.104 639.389,343.841 639.296,326.18C639.202,308.519 653.465,294.104 671.126,294.011Z" style="fill:rgb(70,93,99);"/>
            </g>
            <g id="labels">
                <g id="X" transform="matrix(0.715199,3.96568e-05,-3.96615e-05,0.715285,1073.74,-61.4904)">
                    <path d="M671.925,328.927L674.297,325.264L672.113,321.931L673.764,321.922L675.178,324.162L676.541,321.907L678.177,321.899L676.019,325.308L678.429,328.893L676.726,328.902L675.162,326.491L673.619,328.918L671.925,328.927Z" style="fill:rgb(200,208,210);fill-rule:nonzero;"/>
                </g>
                <g id="Y" transform="matrix(0.715199,3.96568e-05,-3.96615e-05,0.715285,1026.13,-24.0172)">
                    <path d="M674.752,329.265L674.736,326.321L672.153,322.284L673.808,322.275L675.469,325.034L677.067,322.258L678.694,322.249L676.144,326.323L676.16,329.258L674.752,329.265Z" style="fill:rgb(200,208,210);fill-rule:nonzero;"/>
                </g>
                <g id="B" transform="matrix(0.715199,3.96568e-05,-3.96615e-05,0.715285,1043.41,-8.06965)">
                    <path d="M673,322.152L675.797,322.137C676.35,322.134 676.763,322.155 677.035,322.2C677.307,322.244 677.551,322.339 677.767,322.484C677.982,322.63 678.162,322.823 678.307,323.066C678.451,323.309 678.524,323.581 678.526,323.883C678.528,324.211 678.441,324.512 678.266,324.786C678.091,325.061 677.852,325.267 677.551,325.406C677.978,325.528 678.307,325.737 678.537,326.035C678.768,326.333 678.884,326.684 678.886,327.088C678.888,327.406 678.816,327.716 678.669,328.017C678.523,328.319 678.322,328.56 678.067,328.741C677.812,328.922 677.497,329.034 677.122,329.078C676.887,329.104 676.319,329.123 675.419,329.134L673.038,329.147L673,322.152ZM674.419,323.309L674.428,324.926L675.353,324.921C675.904,324.918 676.246,324.908 676.379,324.892C676.621,324.862 676.81,324.777 676.948,324.638C677.086,324.499 677.154,324.317 677.153,324.091C677.151,323.875 677.091,323.699 676.971,323.565C676.851,323.43 676.673,323.349 676.438,323.322C676.298,323.307 675.895,323.301 675.23,323.304L674.419,323.309ZM674.434,326.09L674.444,327.961L675.751,327.954C676.26,327.951 676.583,327.935 676.72,327.906C676.929,327.867 677.1,327.773 677.231,327.624C677.362,327.475 677.427,327.277 677.426,327.029C677.425,326.819 677.373,326.641 677.27,326.495C677.168,326.349 677.02,326.244 676.827,326.178C676.634,326.112 676.217,326.081 675.574,326.084L674.434,326.09Z" style="fill:rgb(200,208,210);fill-rule:nonzero;"/>
                </g>
                <g id="A" transform="matrix(0.715199,3.96568e-05,-3.96615e-05,0.715285,1092.32,-44.9897)">
                    <path d="M679.066,328.752L677.53,328.76L676.911,327.174L674.115,327.189L673.546,328.781L672.047,328.789L674.735,321.78L676.228,321.772L679.066,328.752ZM676.451,325.998L675.474,323.408L674.543,326.008L676.451,325.998Z" style="fill:rgb(200,208,210);fill-rule:nonzero;"/>
                </g>
            </g>
            <g id="button-set2">
                <g id="reduttonframe1" transform="matrix(0.756173,0.897271,-0.581386,0.490079,1194.96,-604.73)">
                    <path d="M733.551,309.883C733.526,302.643 729.697,296.797 725.006,296.836C720.315,296.874 716.526,302.782 716.551,310.022L716.677,346.788C716.702,354.027 720.531,359.873 725.222,359.835C729.913,359.796 733.702,353.888 733.677,346.649L733.551,309.883Z" style="fill:rgb(209,209,205);"/>
                </g>
                <g id="redbutton2" transform="matrix(0.645468,0.76591,-0.765818,0.645545,1381.18,-536.495)">
                    <path d="M678.124,355.079C682.497,355.056 686.065,358.587 686.088,362.959C686.111,367.331 682.581,370.9 678.208,370.923C673.836,370.946 670.267,367.415 670.244,363.043C670.221,358.671 673.752,355.102 678.124,355.079Z" style="fill-opacity:0.5;"/>
                </g>
                <g id="redbutton21" serif:id="redbutton2" transform="matrix(0.645468,0.76591,-0.765818,0.645545,1382.78,-538.55)">
                    <path d="M678.124,355.079C682.497,355.056 686.065,358.587 686.088,362.959C686.111,367.331 682.581,370.9 678.208,370.923C673.836,370.946 670.267,367.415 670.244,363.043C670.221,358.671 673.752,355.102 678.124,355.079Z" style="fill:rgb(190,0,3);"/>
                </g>
                <g id="redbutton1" transform="matrix(0.645468,0.76591,-0.765818,0.645545,1401.09,-553.279)">
                    <path d="M677.987,355.079C682.359,355.056 685.927,358.587 685.951,362.959C685.974,367.332 682.443,370.9 678.07,370.923C673.698,370.946 670.13,367.416 670.106,363.043C670.083,358.671 673.614,355.102 677.987,355.079Z" style="fill-opacity:0.5;"/>
                </g>
                <g id="redbutton11" serif:id="redbutton1" transform="matrix(0.645468,0.76591,-0.765818,0.645545,1402.7,-555.334)">
                    <path d="M677.987,355.079C682.359,355.056 685.927,358.587 685.951,362.959C685.974,367.332 682.443,370.9 678.07,370.923C673.698,370.946 670.13,367.416 670.106,363.043C670.083,358.671 673.614,355.102 677.987,355.079Z" style="fill:rgb(190,0,3);"/>
                </g>
            </g>
            <g id="button-set1">
                <g id="redbuttonframe2" transform="matrix(0.756173,0.897271,-0.581386,0.490079,1174.3,-621.108)">
                    <path d="M733.575,310.063C733.55,302.823 729.721,296.977 725.03,297.015C720.339,297.054 716.55,302.962 716.575,310.202L716.701,346.967C716.726,354.207 720.555,360.053 725.246,360.015C729.937,359.976 733.726,354.068 733.701,346.828L733.575,310.063Z" style="fill:rgb(209,209,205);"/>
                </g>
                <g id="redbutton4" transform="matrix(0.645468,0.76591,-0.765818,0.645545,1360.52,-552.873)">
                    <path d="M678.152,355.215C682.525,355.192 686.093,358.723 686.116,363.096C686.14,367.468 682.609,371.036 678.236,371.06C673.864,371.083 670.295,367.552 670.272,363.179C670.249,358.807 673.78,355.239 678.152,355.215Z" style="fill-opacity:0.5;"/>
                </g>
                <g id="redbutton41" serif:id="redbutton4" transform="matrix(0.645468,0.76591,-0.765818,0.645545,1362.13,-554.928)">
                    <path d="M678.152,355.215C682.525,355.192 686.093,358.723 686.116,363.096C686.14,367.468 682.609,371.036 678.236,371.06C673.864,371.083 670.295,367.552 670.272,363.179C670.249,358.807 673.78,355.239 678.152,355.215Z" style="fill:rgb(190,0,3);"/>
                </g>
                <g id="redbutton3" transform="matrix(0.645468,0.76591,-0.765818,0.645545,1380.43,-569.657)">
                    <path d="M678.015,355.216C682.387,355.193 685.955,358.724 685.979,363.096C686.002,367.468 682.471,371.037 678.099,371.06C673.726,371.083 670.158,367.552 670.135,363.18C670.111,358.808 673.642,355.239 678.015,355.216Z" style="fill-opacity:0.5;"/>
                </g>
                <g id="redbutton31" serif:id="redbutton3" transform="matrix(0.645468,0.76591,-0.765818,0.645545,1382.04,-571.712)">
                    <path d="M678.015,355.216C682.387,355.193 685.955,358.724 685.979,363.096C686.002,367.468 682.471,371.037 678.099,371.06C673.726,371.083 670.158,367.552 670.135,363.18C670.111,358.808 673.642,355.239 678.015,355.216Z" style="fill:rgb(190,0,3);"/>
                </g>
            </g>
        </g>
        <g id="panel-middle">
            <g id="button2_shadow" transform="matrix(0.7629,-0.596793,0.50169,0.641485,825.176,317.256)">
                <path d="M595.758,371.768C595.756,374.34 593.999,376.426 591.836,376.424L578.232,376.41C576.07,376.407 574.316,374.317 574.318,371.745C574.319,369.173 576.077,367.087 578.239,367.089L591.843,367.104C594.005,367.106 595.759,369.196 595.758,371.768Z" style="fill-opacity:0.5;"/>
            </g>
            <g id="button1_shadow" transform="matrix(0.762933,-0.596751,0.501656,0.641513,849.213,314.296)">
                <path d="M593.889,374.588C593.889,377.16 592.133,379.248 589.971,379.247L576.367,379.246C574.204,379.245 572.449,377.157 572.449,374.585C572.449,372.013 574.205,369.925 576.368,369.925L589.971,369.927C592.134,369.927 593.889,372.016 593.889,374.588Z" style="fill-opacity:0.5;"/>
            </g>
            <g id="button2" transform="matrix(0.7629,-0.596793,0.50169,0.641485,826.704,315.3)">
                <path d="M594.538,371.767C594.539,369.996 593.331,368.556 591.842,368.555L578.238,368.54C576.749,368.539 575.539,369.976 575.538,371.747C575.536,373.518 576.744,374.957 578.233,374.959L591.837,374.973C593.326,374.974 594.536,373.538 594.538,371.767Z" style="fill:rgb(51,66,73);stroke:black;stroke-width:2.64px;stroke-linecap:round;stroke-miterlimit:1.5;"/>
            </g>
            <g id="button1" transform="matrix(0.762933,-0.596751,0.501656,0.641513,850.741,312.34)">
                <path d="M592.669,374.588C592.669,372.816 591.461,371.378 589.971,371.378L576.368,371.376C574.878,371.376 573.669,372.814 573.669,374.585C573.669,376.356 574.878,377.794 576.367,377.795L589.971,377.796C591.46,377.796 592.669,376.359 592.669,374.588Z" style="fill:rgb(50,65,72);stroke:black;stroke-width:2.64px;stroke-linecap:round;stroke-miterlimit:1.5;"/>
            </g>
            <g id="infobox" transform="matrix(0.427146,0.052447,-0.0524533,0.427198,1387.96,77.9999)">
                <path d="M292.484,163.35C291.66,156.627 285.532,151.838 278.809,152.662L176.592,165.191C169.869,166.015 165.08,172.142 165.904,178.865L168.891,203.228C169.716,209.951 175.843,214.741 182.566,213.917L284.783,201.388C291.506,200.564 296.295,194.436 295.471,187.713L292.484,163.35Z" style="fill:rgb(100,100,100);"/>
            </g>
        </g>
        <g id="panel-left">
            <g id="d-pad">
                <g id="dpad_shadow" transform="matrix(0.998332,-0.05773,0.05773,0.998332,-11.5965,85.393)">
                    <path d="M1409.57,204.851L1409.57,212.522C1409.57,216.449 1409.13,216.008 1413.06,216.009L1420.03,216.01C1423.95,216.01 1423.51,216.451 1423.51,212.524L1423.52,204.854L1431.18,204.855C1435.11,204.855 1434.67,205.296 1434.67,201.369L1434.67,194.396C1434.67,190.468 1435.11,190.91 1431.19,190.909L1423.52,190.908L1423.52,183.238C1423.52,179.31 1423.96,179.751 1420.03,179.751L1413.06,179.75C1409.13,179.749 1409.58,179.308 1409.57,183.236L1409.57,190.906L1401.9,190.905C1397.98,190.904 1398.42,190.463 1398.42,194.39L1398.42,201.363C1398.41,205.291 1397.97,204.85 1401.9,204.85L1409.57,204.851Z" style="fill-opacity:0.15;"/>
                </g>
                <g id="dpad" transform="matrix(0.998332,-0.05773,0.05773,0.998332,-9.03074,82.109)">
                    <path d="M1409.57,204.851L1409.57,212.522C1409.57,216.449 1409.13,216.008 1413.06,216.009L1420.03,216.01C1423.95,216.01 1423.51,216.451 1423.51,212.524L1423.52,204.854L1431.18,204.855C1435.11,204.855 1434.67,205.296 1434.67,201.369L1434.67,194.396C1434.67,190.468 1435.11,190.91 1431.19,190.909L1423.52,190.908L1423.52,183.238C1423.52,179.31 1423.96,179.751 1420.03,179.751L1413.06,179.75C1409.13,179.749 1409.58,179.308 1409.57,183.236L1409.57,190.906L1401.9,190.905C1397.98,190.904 1398.42,190.463 1398.42,194.39L1398.42,201.363C1398.41,205.291 1397.97,204.85 1401.9,204.85L1409.57,204.851Z" style="fill:rgb(32,44,51);stroke:black;stroke-width:2.47px;stroke-linecap:round;stroke-miterlimit:1.5;"/>
                </g>
                <g id="shadow1" transform="matrix(0.998332,-0.05773,0.05773,0.998332,-8.59573,82.0861)">
                    <path d="M1404.38,197.522L1428.35,197.526C1429.56,197.526 1431.18,198.212 1431.18,198.212C1431.18,198.212 1431.2,197.683 1431.2,197.375L1431.2,196.227C1431.2,192.861 1431.92,193.758 1428.35,193.757L1420.24,193.772L1420.24,185.044C1420.24,181.678 1420.97,182.575 1417.39,182.574L1415.79,182.599C1412.21,182.599 1412.93,181.702 1412.93,185.068L1412.93,193.796L1404.38,193.754C1400.81,193.753 1401.53,192.856 1401.53,196.223L1401.53,197.371C1401.53,197.714 1401.52,198.076 1401.52,198.076C1401.52,198.076 1403.2,197.522 1404.38,197.522Z" style="fill:rgb(17,22,24);"/>
                </g>
            </g>
            <g id="shadow2" transform="matrix(1,0,0,1,0.0303899,0.00185873)">
                <path d="M1416.31,227.099C1416.96,227.133 1423.74,227.37 1431.27,222.565C1435.87,219.629 1439.4,213.952 1439.4,213.952C1439.4,213.952 1437.11,219.468 1431.59,223.028C1424.74,227.454 1417.01,227.137 1416.31,227.099C1416.28,227.097 1416.26,227.096 1416.26,227.096C1416.26,227.096 1416.28,227.097 1416.31,227.099Z" style="fill:rgb(128,128,128);"/>
            </g>
            <g id="shadow11" serif:id="shadow1" transform="matrix(1,0,0,1,0.0303899,0.00185873)">
                <path d="M1440.8,187.23C1440.26,186.136 1439.52,184.911 1438.53,183.776C1435.8,180.65 1431.2,177.888 1427.12,176.064C1423.77,174.562 1420.01,172.858 1415.45,172.492C1411.33,172.162 1405.21,173.498 1405.21,173.498C1405.21,173.498 1417.69,168.118 1428.8,174.116C1435.62,177.8 1439.15,183.588 1440.8,187.23C1441.71,189.099 1442.04,190.584 1442.04,190.584C1442.04,190.584 1441.7,189.231 1440.8,187.23Z" style="fill:rgb(59,59,59);"/>
            </g>
        </g>
    </g>
    <g id="snake-head" transform="matrix(1.74196,0.213885,-0.213885,1.74196,-1198.25,-299.016)">
        <g id="head-shadow">
            <g id="jaw_shadow" transform="matrix(0.966789,-0.000509118,0.000541645,1.02855,886.258,-166.995)">
                <path d="M569.42,389.108C573.599,388.846 591.189,392.816 601.973,392.583C621.269,392.166 625.866,390.112 629.084,390.607C644.095,392.916 646.899,404.867 645.412,412.246C643.561,421.437 636.374,436.903 599.987,436.671C558.349,436.406 552.265,415.036 553.411,405.263C554.978,391.9 564.566,389.412 569.42,389.108Z" style="fill-opacity:0.15;"/>
            </g>
            <g id="head_shadow" transform="matrix(0.565541,-0.0694397,0.0694397,0.565541,696.515,84.3871)">
                <path d="M1547.17,262.701C1547.17,262.701 1536.35,276.182 1532.38,281.213C1526.64,288.487 1515.91,289.702 1507.77,294.127C1498.91,298.942 1487.62,304.343 1479.24,310.102C1471.38,315.503 1464.59,323.65 1457.47,328.679C1450.97,333.281 1443.72,336.763 1436.57,340.278C1428.4,344.292 1418.27,349.836 1408.47,352.763C1398.66,355.69 1388.11,357.435 1377.73,357.84C1364.98,358.338 1346.48,357.539 1331.94,355.751C1317.94,354.028 1302.17,350.614 1290.5,347.112C1280.56,344.128 1270.72,339.956 1261.92,334.74C1253.11,329.525 1244.63,321.692 1237.68,315.818C1231.59,310.675 1225.4,305.541 1220.21,299.5C1214.52,292.897 1209.91,283.347 1203.59,276.202C1196.85,268.583 1187.21,260.607 1179.78,253.79C1172.96,247.525 1162.84,243.745 1159.03,235.297C1155.59,227.661 1154.69,215.841 1155.61,205.634C1156.14,202.246 1156.96,198.847 1158.07,195.448C1163.17,200.777 1167.82,205.426 1174.09,207.518C1195.65,56.069 1407.89,13.746 1500.57,141.687C1519.42,167.713 1531.85,194.242 1539.26,215.859C1547.78,240.687 1549.69,259.035 1547.17,262.701Z" style="fill-opacity:0.15;"/>
            </g>
        </g>
        <g id="head_base" transform="matrix(1,1.38778e-17,-1.38778e-17,1,0.0303899,0.00185873)">
            <path d="M1484.47,23.611C1503.71,23.627 1503.94,13.26 1521.53,9.733C1531.13,7.809 1543.3,9.516 1546.57,10.36C1563.32,14.679 1569.08,31.326 1572.6,40.656C1576.37,50.617 1576.56,55.129 1581.61,66.701C1585.58,75.79 1588.48,82.31 1590.51,88.715C1592.68,95.56 1594.62,100.761 1594.62,107.772C1594.62,114.255 1593.45,122.13 1590.61,126.803C1587.87,131.316 1581.89,132.748 1577.59,135.816C1572.92,139.154 1566.91,142.993 1562.57,146.831C1558.5,150.432 1555.22,155.511 1551.55,158.849C1548.19,161.904 1544.33,164.376 1540.53,166.861C1536.19,169.698 1530.85,173.536 1525.5,175.873C1520.16,178.209 1514.32,179.928 1508.48,180.878C1501.3,182.045 1490.78,182.878 1482.43,182.876C1474.39,182.874 1465.24,182.038 1458.4,180.868C1452.57,179.871 1446.71,178.195 1441.37,175.856C1436.03,173.518 1430.69,169.677 1426.35,166.838C1422.55,164.352 1418.69,161.878 1415.34,158.823C1411.66,155.483 1408.39,150.403 1404.32,146.801C1399.98,142.96 1393.97,139.119 1389.3,135.779C1385.01,132.71 1379.02,131.275 1376.28,126.762C1373.44,122.087 1372.11,114.073 1372.28,107.729C1372.45,101.385 1374.99,94.84 1377.29,88.698C1379.8,82.021 1384.45,74.886 1387.31,67.665C1390.48,59.652 1392.56,49.579 1396.33,40.622C1400.2,31.428 1407.69,16.425 1419.46,11.157C1427.43,7.591 1441.82,8.413 1448.42,9.719C1466.03,13.208 1465.82,23.595 1484.47,23.611Z" style="fill:rgb(254,227,45);stroke:black;stroke-width:2.9px;stroke-linecap:round;stroke-miterlimit:1.5;"/>
        </g>
        <g id="face-shadows" transform="matrix(1.00155,-1.38778e-17,-1.52656e-16,1.00167,894.193,-165.734)">
            <g id="shadow3" transform="matrix(0.998451,1.38332e-17,1.52165e-16,0.998331,-892.808,165.457)">
                <path d="M1521.82,12.219C1527.23,9.394 1538.79,9.481 1545.1,11.167C1551.13,12.782 1555.87,17.325 1559.67,22.34C1564.5,28.725 1565.64,26.87 1575.93,56.91C1578.26,63.681 1580.8,70.655 1582.88,75.235C1584.34,78.453 1585.51,81.112 1586.79,84.39C1588.45,88.629 1590.48,95.58 1591.22,100.666C1591.9,105.384 1592.5,110.336 1591.22,114.908C1589.93,119.486 1589.5,125.306 1585.1,128.134C1577.97,132.71 1561.1,144.367 1561.1,144.367C1559.79,142.192 1564.48,132.508 1557.88,121.126C1550.22,107.89 1542.21,104.758 1542.21,104.758C1542.21,104.758 1559.02,95.808 1561.88,71.169C1563.1,60.673 1559.36,41.955 1552.55,33.64C1541.13,19.685 1532.92,19.952 1524,19.12C1519.91,18.738 1520.21,13.064 1521.82,12.219Z" style="fill:rgb(255,223,38);"/>
            </g>
            <g id="shadow21" serif:id="shadow2" transform="matrix(0.998451,1.38332e-17,1.52165e-16,0.998331,-892.808,165.457)">
                <path d="M1489.73,26.181C1489.73,26.181 1497.4,24.469 1500.5,22.616C1505.93,19.368 1513.67,13.307 1519.81,12.617C1522.82,12.279 1520.63,15.733 1519.77,17.161C1518.47,19.303 1518.94,17.039 1508.98,26.004C1499.72,34.342 1493.84,51.231 1493.74,66.247C1493.69,73.217 1499.3,89.043 1500.75,89.284L1486.73,87.283C1486.73,87.283 1485.25,67.912 1485.72,58.235C1486.22,48.051 1489.73,26.181 1489.73,26.181Z" style="fill:rgb(240,204,0);"/>
            </g>
            <g id="shadow12" serif:id="shadow1" transform="matrix(0.998451,1.38332e-17,1.52165e-16,0.998331,-892.808,165.457)">
                <path d="M1405.32,145.622C1405.32,145.622 1390.63,134.282 1385.68,131.88C1382.04,130.116 1379.62,128.685 1378.27,126.84C1374.35,121.509 1374.05,113.99 1373.89,109.714C1373.6,101.948 1376.82,94.4 1379.12,88.301C1381.31,82.535 1384.28,77.92 1386.77,72.849C1387.2,71.954 1391.56,60.25 1391.85,59.281C1396.63,43.665 1396.04,45.384 1400.14,36.004C1405.24,24.368 1413.02,15.889 1419.26,12.845C1425.33,9.888 1437.14,10.531 1434.52,14.005C1433.35,15.56 1430.27,17.487 1424.6,21.097C1419.41,24.395 1413.77,29.993 1412.28,32.384C1409.35,37.071 1402.77,50.733 1402.43,64.479C1402.3,69.822 1404.06,80.38 1405.04,83.942C1406.61,89.608 1408.61,100.817 1408.61,103.321C1408.61,105.561 1406.55,107.298 1405.61,109.332C1404.61,111.502 1403.13,113.855 1402.6,116.344C1401.94,119.516 1401.31,124.354 1401.6,128.364C1401.94,132.871 1405.32,145.622 1405.32,145.622Z" style="fill:rgb(239,204,0);"/>
            </g>
        </g>
        <g id="face-highlights" transform="matrix(1.00155,-1.38778e-17,-1.66533e-16,1.00167,895.927,-160.133)">
            <g id="highlight3" transform="matrix(0.991009,-0.121666,0.121681,0.99089,-891.119,346.576)">
                <path d="M1552.81,19.744C1554.06,17.836 1559.64,20.775 1561.12,22.839C1562.85,25.236 1563.88,31.689 1563.07,32.085C1561.92,32.65 1559.86,27.69 1558.19,25.358C1556.46,22.961 1552.32,20.496 1552.81,19.744Z" style="fill:white;"/>
            </g>
            <g id="highlight2" transform="matrix(0.991009,-0.121666,0.121681,0.99089,-891.119,346.576)">
                <path d="M1584.59,109.737C1583.34,109.289 1583.02,112.525 1582.09,115.48C1581.03,118.886 1580.42,119.824 1578.89,121.573C1574.18,126.985 1573.99,130.665 1575,130.752C1579.32,131.121 1582.1,125.084 1583.68,120.932C1584.64,118.437 1585.29,109.991 1584.59,109.737Z" style="fill:white;"/>
            </g>
            <g id="highlight1" transform="matrix(0.991009,-0.121666,0.121681,0.99089,-891.119,346.576)">
                <path d="M1473.1,23.129C1473.68,22.527 1476.81,24.424 1477.83,25.726C1478.85,27.027 1479.79,30.338 1479.21,30.94C1478.63,31.542 1475,30.067 1473.99,28.765C1472.97,27.463 1472.52,23.731 1473.1,23.129Z" style="fill:white;"/>
            </g>
        </g>
        <g id="eyes">
            <g id="eye-r">
                <g id="eyeball-r" transform="matrix(1,0,0,1,0.0303899,0.00185873)">
                    <path d="M1528.21,22.677C1545.14,22.68 1558.88,41.607 1558.87,64.916C1558.87,88.225 1545.12,107.146 1528.2,107.143C1511.27,107.139 1497.54,88.213 1497.54,64.904C1497.55,41.595 1511.29,22.674 1528.21,22.677Z" style="fill:white;stroke:black;stroke-width:2.77px;stroke-linecap:round;stroke-miterlimit:1.5;"/>
                </g>
                <g id="pupil-r" transform="matrix(1.17746,1.11022e-16,8.32667e-17,1.17746,-268.628,-25.7873)">
                    <path d="M1514.56,72.669C1519.87,72.67 1524.19,76.987 1524.19,82.303C1524.19,87.619 1519.87,91.935 1514.55,91.934C1509.24,91.933 1504.92,87.616 1504.92,82.299C1504.93,76.983 1509.24,72.668 1514.56,72.669Z"/>
                </g>
            </g>
            <g id="eye-l">
                <g id="eyeball-l" transform="matrix(1,0,0,1,0.0303899,0.00185873)">
                    <path d="M1437.73,22.659C1454.65,22.663 1468.39,41.589 1468.38,64.898C1468.38,88.207 1454.63,107.128 1437.71,107.125C1420.79,107.122 1407.05,88.195 1407.05,64.886C1407.06,41.577 1420.8,22.656 1437.73,22.659Z" style="fill:white;stroke:black;stroke-width:2.77px;stroke-linecap:round;stroke-miterlimit:1.5;"/>
                </g>
                <g id="pupil-l" transform="matrix(1.17746,1.11022e-16,8.32667e-17,1.17746,-257.448,-25.7851)">
                    <path d="M1451.56,72.656C1456.87,72.657 1461.19,76.974 1461.19,82.291C1461.19,87.607 1456.87,91.922 1451.55,91.921C1446.24,91.92 1441.92,87.603 1441.92,82.287C1441.92,76.971 1446.24,72.655 1451.56,72.656Z"/>
                </g>
            </g>
        </g>
        <g id="jaw">
            <g id="jaw-base" transform="matrix(0.966789,-0.000509118,0.000541645,1.02855,892.707,-175.25)">
                <path d="M569.42,389.108C573.599,388.846 591.189,392.816 601.973,392.583C621.269,392.166 625.866,390.112 629.084,390.607C644.095,392.916 646.899,404.867 645.412,412.246C643.561,421.437 636.374,436.903 599.987,436.671C558.349,436.406 552.265,415.036 553.411,405.263C554.978,391.9 564.566,389.412 569.42,389.108Z" style="fill:rgb(240,204,0);stroke:black;stroke-width:2.83px;stroke-linecap:round;stroke-miterlimit:1.5;"/>
            </g>
            <g id="jaw-light" transform="matrix(0.931083,-0.000490315,0.00052164,0.990567,913.997,-159.516)">
                <path d="M587.362,396.695C592.828,396.373 597.492,396.713 604.111,396.033C614.154,394.999 620.211,392.212 627.296,391.234C634.38,390.256 640.519,394.432 643.726,399.294C647.362,404.804 646.532,409.459 645.797,412.778C642.972,425.521 631.326,433.025 602.625,432.724C591.307,432.605 585.525,431.883 577.278,426.782C571.056,422.933 566.066,412.338 569.276,405.034C572.991,396.583 582.194,396.999 587.362,396.695Z" style="fill:rgb(254,227,45);"/>
            </g>
            <g id="hilight1" transform="matrix(0.966789,-0.000509118,0.00050918,0.966905,672.291,-152.965)">
                <path d="M859.405,400.127C860.405,400.126 863.362,401.485 864.406,403.124C865.574,404.957 866.41,409.789 866.41,411.123C866.411,411.789 864.882,411.595 864.41,411.124C863.743,410.458 863.303,408.317 862.408,407.125C861.408,405.792 858.907,404.293 858.406,403.127C857.99,402.158 858.405,400.127 859.405,400.127Z" style="fill:white;"/>
            </g>
        </g>
        <g id="snout" transform="matrix(1.01627,2.49019e-17,-2.49019e-17,1.01627,-24.0994,-2.4617)">
            <g id="tooth_r" transform="matrix(1,0,0,1,0.0303899,0.00185873)">
                <path d="M1532.52,170.866L1544.54,163.856L1540.52,211.936L1532.52,170.866Z" style="fill:white;stroke:black;stroke-width:2.9px;stroke-linecap:round;stroke-miterlimit:1.5;"/>
            </g>
            <g id="tooth_l" transform="matrix(1,0,0,1,0.0303899,0.00185873)">
                <path d="M1430.36,170.846L1418.34,163.832L1422.34,211.913L1430.36,170.846Z" style="fill:white;stroke:black;stroke-width:2.9px;stroke-linecap:round;stroke-miterlimit:1.5;"/>
            </g>
            <g id="snout_base" transform="matrix(1.16089,0.000531638,-0.000959148,2.0944,804.244,-533.637)">
                <path d="M584.086,297.961C620.512,297.97 650.077,307.836 650.067,319.978C650.056,332.12 620.474,341.97 584.047,341.961C547.621,341.951 518.056,332.085 518.067,319.943C518.077,307.801 547.659,297.951 584.086,297.961Z" style="fill:rgb(254,227,45);stroke:black;stroke-width:1.72px;stroke-linecap:round;stroke-miterlimit:1.5;"/>
            </g>
            <g id="shadow13" serif:id="shadow1" transform="matrix(0.590658,0.000270496,-0.000270529,0.590729,-605.649,-55.1469)">
                <path d="M3478.21,257.973C3478.21,257.973 3427.78,276.329 3427.76,323.263C3427.73,370.198 3476.76,386.865 3476.76,386.865C3476.76,386.865 3411.18,370.19 3411.21,323.255C3411.23,276.321 3478.21,257.973 3478.21,257.973Z" style="fill:rgb(232,197,0);"/>
            </g>
            <g id="nostril-r">
                <g id="nostril_r_base" transform="matrix(1.15237,0.000527734,-0.000608997,1.32981,860.768,-268.078)">
                    <path d="M564.004,297.373C571.731,297.377 578.003,300.292 578.001,303.879C577.999,307.467 571.724,310.377 563.997,310.373C556.27,310.37 549.999,307.455 550.001,303.868C550.003,300.28 556.278,297.37 564.004,297.373Z" style="fill:rgb(247,219,39);"/>
                </g>
                <g id="shadow_r" transform="matrix(0.465447,0.000213155,-0.00021318,0.465503,-114.16,3.52739)">
                    <path d="M3456.32,281.48C3458.55,272.379 3473.1,265.348 3490.7,265.357C3509.83,265.366 3525.36,273.694 3525.35,283.942C3525.35,289.793 3520.28,295.013 3512.38,298.413C3512.57,297.618 3512.67,296.808 3512.67,295.985C3512.68,285.736 3497.15,277.409 3478.02,277.399C3469.81,277.395 3462.27,278.924 3456.32,281.48Z" style="fill:rgb(205,177,0);"/>
                </g>
            </g>
            <g id="nostril-l">
                <g id="nostril_l_base" transform="matrix(1.15237,0.000527734,-0.000608997,1.32981,800.675,-268.105)">
                    <path d="M564.004,297.352C571.731,297.355 578.003,300.27 578.001,303.857C577.999,307.445 571.724,310.355 563.997,310.352C556.27,310.348 549.999,307.433 550.001,303.846C550.003,300.258 556.278,297.348 564.004,297.352Z" style="fill:rgb(247,219,39);"/>
                </g>
                <g id="shadow_l" transform="matrix(0.465447,0.000213155,-0.00021318,0.465503,-174.253,3.49987)">
                    <path d="M3456.32,281.418C3458.55,272.316 3473.1,265.286 3490.7,265.294C3509.83,265.303 3525.36,273.631 3525.35,283.88C3525.35,289.73 3520.28,294.95 3512.38,298.351C3512.57,297.556 3512.67,296.745 3512.67,295.922C3512.68,285.674 3497.15,277.346 3478.02,277.337C3469.81,277.333 3462.27,278.861 3456.32,281.418Z" style="fill:rgb(205,177,0);"/>
                </g>
            </g>
            <g id="highlight11" serif:id="highlight1" transform="matrix(1.00155,-1.45487e-05,-1.45487e-05,1.00167,26.65,-13.0335)">
                <path d="M1505.26,121.885C1506.28,120.356 1512.93,125.765 1513.57,126.609C1514.35,127.654 1520.6,132.045 1517.75,134.502C1514.82,137.02 1513.11,131.001 1510.92,128.854C1508.92,126.891 1503.41,124.686 1505.26,121.885Z" style="fill:white;"/>
            </g>
        </g>
    </g>
</svg>
